<svg width="88" height="67" viewBox="0 0 88 67" fill="none" xmlns="http://www.w3.org/2000/svg">
<path d="M55.0471 66.0549C54.9218 66.0157 54.3629 64.8134 53.8171 63.3931C52.1088 58.8322 50.2247 57.3819 47.9289 58.8293L46.6617 59.6267L46.6236 57.7266C46.5542 53.8175 44.4447 51.769 42.253 53.4989C40.2829 55.0482 39.4376 56.2554 39.2477 56.3348C39.2068 56.3775 38.744 56.0106 38.2298 55.5442C35.8949 53.4252 34.5274 54.1912 29.1843 56.3233L28.7691 55.2771C26.5374 49.6639 23.4494 48.8086 17.2016 52.0737C15.0338 53.2002 14.2492 53.51 14.178 53.2101C12.4898 45.1569 8.92479 41.9587 5.53171 45.5063C2.58831 48.5837 1.05317 50.8522 0.944867 52.4288C0.769268 54.4842 3.57644 55.9735 5.1512 52.5234C5.57721 51.6015 8.05245 48.3499 8.77378 47.7148C9.25775 47.3109 9.31052 47.494 10.5402 52.7936C11.5286 57.0181 12.9456 61.0158 16.8041 57.475C23.7353 51.1472 26.7654 50.957 27.4464 56.7791C27.7072 59.1099 30.0119 60.3587 31.419 58.9386C32.474 57.8526 34.3425 56.7157 35.6915 56.3604L36.7345 56.1037L37.3871 57.4463C38.5616 59.7576 40.2994 60.8845 42.1628 58.3577C43.2205 56.9116 43.3391 57.0598 43.178 59.5084C42.8426 64.0961 45.6205 66.9091 49.0229 62.8924C50.459 61.2038 50.4339 61.1959 51.0824 63.3426C51.8271 65.797 53.0084 66.9441 54.6277 66.8677C55.1089 66.824 55.4479 66.1803 55.0471 66.0549Z" fill="#01BBC8"/>
<path d="M78.1047 44.6702C76.0796 42.7036 73.7906 41.9318 71.7811 42.5524C70.6892 42.8772 70.44 42.8825 70.3596 42.5241C69.731 39.5229 68.0118 37.4577 66.2528 37.6292C65.5474 37.6862 64.6085 39.2802 63.3424 41.2165C62.3233 39.8147 59.5717 37.0935 57.9024 36.6266C55.5739 35.9813 53.4008 37.8278 52.1309 38.4578L51.9768 37.1045C51.3867 31.7829 47.9294 31.2286 43.3126 35.6982L41.2171 37.7362L40.9746 36.0498C40.0629 29.2947 36.7522 28.5361 31.2755 33.8196L29.1959 35.8067C28.1521 31.7593 27.3194 25.2791 23.2306 24.7215C21.3068 24.4527 19.2155 26.2137 15.6179 30.5026C10.2098 36.9737 16.0602 36.9996 17.6822 34.9804C22.4258 29.051 23.8011 28.2599 24.4258 31.01C25.2469 34.6267 26.5649 39.2043 26.88 39.6916C27.8754 41.1693 29.9863 41.7189 30.7275 40.7568C35.6557 34.4131 36.4429 34.798 36.9915 34.2755C37.2495 38.0215 37.3573 40.1381 37.6275 41.4721C38.0413 43.4898 40.0927 46.0755 43.4793 42.1094C47.2575 37.6827 48.5498 36.3655 48.559 36.9515C48.4212 43.0172 51.0594 44.8702 54.9272 41.3879C57.0332 39.4923 58.1646 39.0409 58.5431 38.7983C62.3228 44.5627 61.806 43.9289 62.303 44.3621C64.0131 45.8414 66.4445 45.1031 67.3085 42.4301C67.3797 42.2025 67.6012 42.5495 67.8108 43.1982C68.632 45.7598 70.6757 46.7879 73.0123 45.8253C75.0021 45.004 75.5915 44.9663 76.616 45.6479C79.1422 47.2437 80.0876 46.5957 78.1047 44.6702Z" fill="#01BBC8"/>
<path d="M82.7152 26.509L81.7302 26.2288C80.9724 22.4097 80.6588 20.4234 80.0089 19.2481C79.1454 17.7006 76.3213 15.6504 73.7772 20.8797C71.9097 24.7381 71.5272 25.2573 70.9972 24.8415C70.189 24.1721 67.755 23.1605 66.6395 23.0336C65.524 22.9067 65.4818 22.8657 65.234 21.8996C64.6567 19.5253 61.5978 18.4015 58.23 19.3191C57.4191 19.5374 56.773 19.6681 56.7559 19.635C56.7467 19.5766 56.6242 18.6497 56.4832 17.6059C56.0946 14.541 55.0528 14.3541 52.2219 13.4682L52.9264 11.2171C54.9366 4.79339 50.3718 4.0869 46.6122 6.52017C44.778 7.72327 42.3753 9.77601 39.3712 12.6956L36.6533 15.316C34.4488 14.6261 34.4342 14.7604 33.5774 13.1039C32.7205 11.4474 31.9492 11.0116 29.8566 11.1065C29.2091 11.1538 28.6356 11.1409 28.6105 11.1331C27.7587 10.8665 32.8929 2.81005 27.4645 1.08355C25.5856 0.495581 24.1047 1.44841 17.7063 7.3043C9.84155 14.5062 16.4186 14.7595 17.6345 13.3351C18.7198 12.0642 23.4421 7.96049 24.7292 6.83605C24.5313 7.99587 24.2871 9.3914 23.7185 11.296C22.629 14.9536 26.0941 16.5377 29.3183 13.8814C31.2792 12.2736 33.0355 13.5171 31.9237 15.7516C31.6493 16.2766 31.9709 17.1828 32.4719 17.3396C33.474 17.6531 35.2776 19.8003 36.9218 19.7317C38.1428 19.6973 39.447 18.606 42.0423 16.1138C42.8361 15.3348 44.3843 13.9034 45.703 12.6778C46.3663 12.0523 47.4238 12.7162 47.1547 13.5761C47.0385 15.7055 44.2625 18.3358 48.0203 19.5117C49.0224 19.8253 50.0997 19.6349 51.061 18.9361C52.4245 17.9189 52.3151 17.8291 52.8831 20.1449C53.5408 22.8775 55.6821 23.7695 59.0802 22.667C61.1887 21.994 61.3627 21.9652 61.4708 22.4988C61.762 24.1171 63.927 25.461 66.5219 25.6066C68.1437 25.6977 68.3191 25.7525 69.689 26.7366C73.0761 29.1849 74.847 28.7119 76.5417 24.9661L77.1682 23.5794L77.5017 24.7112C78.2833 27.3993 79.4053 28.9996 80.9849 29.5772C81.1853 29.64 87.2294 30.893 87.7134 30.4891C88.7143 29.6639 85.8032 27.3642 82.7152 26.509Z" fill="#01BBC8"/>
</svg>
