<svg width="92" height="84" viewBox="0 0 92 84" fill="none" xmlns="http://www.w3.org/2000/svg">
<path fill-rule="evenodd" clip-rule="evenodd" d="M86.7958 2.02671C91.3276 5.08003 93.4856 29.8556 89.1264 28.2854C85.9325 27.1513 85.1556 23.618 83.904 4.86193C83.5587 0.500045 83.9472 0.107475 86.7958 2.02671ZM88.9968 34.0866C93.0107 36.6165 90.1622 59.0802 85.8462 59.0802C82.9544 59.0802 82.566 54.3257 84.5946 42.5923C86.321 32.7344 86.4503 32.4727 88.9968 34.0866ZM31.3777 53.8459C35.8232 55.1545 29.6513 60.0398 21.8824 61.4356C20.0265 61.7409 18.4732 62.0899 18.3437 62.1771C18.1279 62.3952 25.9831 65.2305 35.1762 68.3274C49.8507 73.2563 49.4191 77.6618 34.9604 72.5148C23.7819 68.5455 16.6168 66.0592 16.2716 66.0592C16.0557 66.0592 16.4446 66.6699 17.0489 67.455C25.9399 78.5342 27.968 81.8492 26.5005 82.8961C24.3425 84.51 20.8897 82.1982 16.0557 75.9607C8.80482 66.6263 6.51775 64.2272 0.863754 60.2579C-1.33743 58.7312 0.691109 58.077 6.6904 58.4259C15.7972 58.9493 20.6743 57.9025 25.7241 54.5002C27.3642 53.3225 28.9607 53.148 31.3777 53.8459ZM63.0144 78.2289C58.4826 78.2289 57.8352 77.3129 55.4616 75.0883L56.3679 74.3468C56.8857 73.9106 59.1299 73.2999 61.6764 72.8637C67.4599 71.9041 71.8621 69.5051 76.2645 64.8815C76.8256 64.3145 77.3867 63.8783 77.5593 63.9219C89.7305 65.9284 75.833 78.2289 63.0144 78.2289Z" fill="#01BBC8"/>
</svg>
