<svg width="17" height="16" viewBox="0 0 17 16" fill="none" xmlns="http://www.w3.org/2000/svg">
<path d="M8.5 14C9.28793 14 10.0681 13.8448 10.7961 13.5433C11.5241 13.2417 12.1855 12.7998 12.7426 12.2426C13.2998 11.6855 13.7417 11.0241 14.0433 10.2961C14.3448 9.56815 14.5 8.78793 14.5 8C14.5 7.21207 14.3448 6.43185 14.0433 5.7039C13.7417 4.97595 13.2998 4.31451 12.7426 3.75736C12.1855 3.20021 11.5241 2.75825 10.7961 2.45672C10.0681 2.15519 9.28793 2 8.5 2C6.9087 2 5.38258 2.63214 4.25736 3.75736C3.13214 4.88258 2.5 6.4087 2.5 8C2.5 9.5913 3.13214 11.1174 4.25736 12.2426C5.38258 13.3679 6.9087 14 8.5 14ZM8.5 15C6.64348 15 4.86301 14.2625 3.55025 12.9497C2.2375 11.637 1.5 9.85652 1.5 8C1.5 6.14348 2.2375 4.36301 3.55025 3.05025C4.86301 1.7375 6.64348 1 8.5 1C10.3565 1 12.137 1.7375 13.4497 3.05025C14.7625 4.36301 15.5 6.14348 15.5 8C15.5 9.85652 14.7625 11.637 13.4497 12.9497C12.137 14.2625 10.3565 15 8.5 15Z" fill="#FF9A62"/>
<path d="M8 4C8.13261 4 8.25979 4.05268 8.35355 4.14645C8.44732 4.24021 8.5 4.36739 8.5 4.5V8.5C8.5 8.63261 8.44732 8.75979 8.35355 8.85355C8.25979 8.94732 8.13261 9 8 9C7.86739 9 7.74021 8.94732 7.64645 8.85355C7.55268 8.75979 7.5 8.63261 7.5 8.5V4.5C7.5 4.36739 7.55268 4.24021 7.64645 4.14645C7.74021 4.05268 7.86739 4 8 4Z" fill="#FF9A62"/>
<path d="M8 8H12C12.3333 8 12.5 8.16667 12.5 8.5C12.5 8.83333 12.3333 9 12 9H8C7.66667 9 7.5 8.83333 7.5 8.5C7.5 8.16667 7.66667 8 8 8Z" fill="#FF9A62"/>
</svg>
