<svg width="33" height="33" viewBox="0 0 33 33" fill="none" xmlns="http://www.w3.org/2000/svg">
<path d="M25.5434 0.5H7.06893C3.34833 0.5 0.306152 3.54286 0.306152 7.25714V25.7357C0.306152 29.4571 3.34833 32.5 7.06893 32.5H25.5434C29.264 32.5 32.3062 29.4571 32.3062 25.7429V7.25714C32.3062 3.54286 29.264 0.5 25.5434 0.5ZM21.9727 23.1C19.9803 26.5429 15.5527 27.7357 12.1035 25.7571C10.4682 28.6 8.18297 26.3714 9.08277 24.8143L10.2039 22.8714C10.6253 22.1357 11.5751 21.8786 12.3106 22.3071C13.6389 23.0786 12.3035 22.3 13.6318 23.0714C15.6027 24.2071 18.1593 23.5214 19.3019 21.55C20.4374 19.5786 19.7518 17.0214 17.7808 15.8786C16.5097 15.15 17.738 15.85 16.4525 15.1214C14.6958 14.1071 16.2097 11.4143 17.9951 12.4429C19.3233 13.2143 17.9879 12.4357 19.3162 13.2071C22.7726 15.2071 23.9652 19.6571 21.9727 23.1ZM23.5295 8.18572C22.3155 10.2929 22.3655 10.2429 22.1727 10.4357C21.7085 10.9 21.0087 11.0571 20.2803 10.6929C18.952 9.92143 20.2874 10.7 18.9591 9.92857C16.9881 8.79286 14.4316 9.47857 13.289 11.45C12.1464 13.4214 12.8391 15.9786 14.8101 17.1214C14.8101 17.1214 16.1312 17.8786 16.1383 17.8786C17.8951 18.8929 16.3811 21.5857 14.5958 20.5571C13.2675 19.7857 14.603 20.5643 13.2747 19.7929C9.8326 17.8071 8.64001 13.3571 10.6253 9.90714C12.6177 6.46429 17.0453 5.27143 20.4945 7.25L20.8373 6.65C21.8585 4.87143 24.5507 6.41429 23.5295 8.18572Z" fill="#2518B8"/>
</svg>
