<svg width="25" height="24" viewBox="0 0 25 24" fill="none" xmlns="http://www.w3.org/2000/svg">
<rect x="1.84375" y="1" width="22" height="22" rx="11" fill="#2518B8"/>
<path d="M11.3438 16.1249H9.09375C8.99429 16.1249 8.89891 16.0854 8.82859 16.0151C8.75826 15.9448 8.71875 15.8494 8.71875 15.7499V13.6553C8.71875 13.606 8.72845 13.5573 8.7473 13.5118C8.76614 13.4663 8.79376 13.4249 8.82859 13.3901L14.4536 7.76511C14.5239 7.69478 14.6193 7.65527 14.7188 7.65527C14.8182 7.65527 14.9136 7.69478 14.9839 7.76511L17.0786 9.85978C17.1489 9.9301 17.1884 10.0255 17.1884 10.1249C17.1884 10.2244 17.1489 10.3198 17.0786 10.3901L11.3438 16.1249Z" stroke="white" stroke-width="1.05586" stroke-linecap="round" stroke-linejoin="round"/>
<path d="M13.2188 9L15.8438 11.625" stroke="white" stroke-width="1.05586" stroke-linecap="round" stroke-linejoin="round"/>
<rect x="1.84375" y="1" width="22" height="22" rx="11" stroke="white" stroke-width="2"/>
</svg>
