<?xml version="1.0" standalone="no"?>
<!DOCTYPE svg PUBLIC "-//W3C//DTD SVG 20010904//EN"
 "http://www.w3.org/TR/2001/REC-SVG-20010904/DTD/svg10.dtd">
<svg version="1.0" xmlns="http://www.w3.org/2000/svg"
 width="400.000000pt" height="400.000000pt" viewBox="0 0 400.000000 400.000000"
 preserveAspectRatio="xMidYMid meet">

<g transform="translate(0.000000,400.000000) scale(0.100000,-0.100000)"
fill="#000000" stroke="none">
<path d="M0 2000 l0 -2000 2000 0 2000 0 0 2000 0 2000 -2000 0 -2000 0 0
-2000z m2826 1185 c211 -63 228 -254 48 -546 -77 -125 -160 -227 -278 -343
l-101 -99 55 -45 c96 -80 254 -244 318 -330 156 -212 235 -448 197 -594 -28
-111 -103 -176 -235 -204 -203 -43 -476 40 -762 234 -172 116 -375 315 -478
468 -44 65 -51 70 -109 73 -27 1 -64 6 -82 11 -18 5 -34 8 -37 6 -2 -2 10 -46
27 -98 70 -220 111 -467 112 -675 0 -86 -2 -157 -4 -159 -2 -3 -7 39 -10 92
-14 207 -94 514 -194 739 -105 238 -265 503 -424 703 -41 50 -83 113 -93 138
-18 43 -18 48 -3 80 30 61 97 55 160 -15 39 -43 125 -173 191 -288 45 -78 66
-100 66 -70 0 25 78 173 125 237 83 112 137 170 235 252 233 196 509 344 760
408 190 49 403 59 516 25z"/>
<path d="M2425 3046 c-153 -40 -331 -133 -511 -266 -102 -76 -264 -225 -264
-244 0 -7 32 -11 93 -12 153 -2 316 -55 500 -162 l58 -33 63 50 c136 109 307
311 378 448 58 113 51 190 -22 228 -45 23 -187 19 -295 -9z"/>
<path d="M1605 2371 c-73 -18 -113 -71 -100 -133 16 -73 89 -118 193 -118 104
0 388 78 379 104 -2 5 -33 26 -69 46 -155 88 -302 125 -403 101z"/>
<path d="M2246 2030 c-122 -78 -384 -188 -483 -205 -24 -4 -43 -10 -43 -15 0
-12 137 -149 208 -208 265 -219 581 -341 716 -277 20 10 43 30 51 46 42 80
-10 241 -136 419 -55 77 -236 270 -255 270 -5 0 -32 -14 -58 -30z"/>
</g>
</svg>
