<svg width="30" height="30" viewBox="0 0 30 30" fill="none" xmlns="http://www.w3.org/2000/svg">
<path fill-rule="evenodd" clip-rule="evenodd" d="M28.6 15.322C28.6 14.3175 28.5099 13.3516 28.3424 12.4243H15V17.9042H22.6243C22.2958 19.6751 21.2977 21.1754 19.7974 22.18V25.7345H24.3758C27.0546 23.2683 28.6 19.6364 28.6 15.322Z" fill="#4285F4"/>
<path fill-rule="evenodd" clip-rule="evenodd" d="M15.0001 29.1667C18.8251 29.1667 22.0319 27.8982 24.3759 25.7345L19.7974 22.18C18.5289 23.03 16.9061 23.5322 15.0001 23.5322C11.3103 23.5322 8.18719 21.0402 7.07317 17.6917H2.34021V21.3622C4.67127 25.9921 9.46219 29.1667 15.0001 29.1667Z" fill="#34A853"/>
<path fill-rule="evenodd" clip-rule="evenodd" d="M7.07316 17.6918C6.78982 16.8418 6.62884 15.9338 6.62884 15.0001C6.62884 14.0664 6.78982 13.1584 7.07316 12.3084V8.63795H2.34019C1.38072 10.5505 0.833374 12.7141 0.833374 15.0001C0.833374 17.2861 1.38072 19.4497 2.34019 21.3622L7.07316 17.6918Z" fill="#FBBC05"/>
<path fill-rule="evenodd" clip-rule="evenodd" d="M15.0001 6.46787C17.08 6.46787 18.9474 7.18264 20.4156 8.58643L24.4789 4.52317C22.0255 2.23718 18.8186 0.833389 15.0001 0.833389C9.46219 0.833389 4.67127 4.00802 2.34021 8.63795L7.07317 12.3084C8.18719 8.95992 11.3103 6.46787 15.0001 6.46787Z" fill="#EA4335"/>
</svg>
