<svg width="30" height="29" viewBox="0 0 30 29" fill="none" xmlns="http://www.w3.org/2000/svg">
<path fill-rule="evenodd" clip-rule="evenodd" d="M28.6 14.822C28.6 13.8174 28.5099 12.8515 28.3424 11.9243H15V17.4042H22.6243C22.2958 19.175 21.2977 20.6754 19.7974 21.68V25.2345H24.3758C27.0546 22.7682 28.6 19.1364 28.6 14.822Z" fill="#4285F4"/>
<path fill-rule="evenodd" clip-rule="evenodd" d="M15.0001 28.6667C18.8251 28.6667 22.0319 27.3981 24.3759 25.2345L19.7974 21.6799C18.5289 22.5299 16.9061 23.0322 15.0001 23.0322C11.3103 23.0322 8.18719 20.5401 7.07317 17.1917H2.34021V20.8621C4.67127 25.492 9.46219 28.6667 15.0001 28.6667Z" fill="#34A853"/>
<path fill-rule="evenodd" clip-rule="evenodd" d="M7.07316 17.1917C6.78982 16.3417 6.62884 15.4338 6.62884 14.5001C6.62884 13.5664 6.78982 12.6584 7.07316 11.8084V8.13794H2.34019C1.38072 10.0504 0.833374 12.2141 0.833374 14.5001C0.833374 16.7861 1.38072 18.9497 2.34019 20.8622L7.07316 17.1917Z" fill="#FBBC05"/>
<path fill-rule="evenodd" clip-rule="evenodd" d="M15.0001 5.96785C17.08 5.96785 18.9474 6.68263 20.4156 8.08642L24.4789 4.02315C22.0255 1.73716 18.8186 0.333374 15.0001 0.333374C9.46219 0.333374 4.67127 3.508 2.34021 8.13793L7.07317 11.8084C8.18719 8.4599 11.3103 5.96785 15.0001 5.96785Z" fill="#EA4335"/>
</svg>
