<svg width="24" height="21" viewBox="0 0 24 21" fill="none" xmlns="http://www.w3.org/2000/svg">
<path d="M20.8396 2.99591C20.3289 2.48492 19.7224 2.07956 19.055 1.803C18.3875 1.52643 17.6721 1.38409 16.9496 1.38409C16.2271 1.38409 15.5117 1.52643 14.8443 1.803C14.1768 2.07956 13.5704 2.48492 13.0596 2.99591L11.9996 4.05591L10.9396 2.99591C9.90794 1.96422 8.50866 1.38462 7.04963 1.38462C5.5906 1.38462 4.19132 1.96422 3.15963 2.99591C2.12794 4.0276 1.54834 5.42688 1.54834 6.88591C1.54834 8.34494 2.12794 9.74422 3.15963 10.7759L4.21963 11.8359L11.9996 19.6159L19.7796 11.8359L20.8396 10.7759C21.3506 10.2652 21.756 9.65873 22.0325 8.99127C22.3091 8.32381 22.4515 7.6084 22.4515 6.88591C22.4515 6.16342 22.3091 5.44802 22.0325 4.78056C21.756 4.1131 21.3506 3.50667 20.8396 2.99591V2.99591Z" stroke="#01BBC8" stroke-width="2" stroke-linecap="round" stroke-linejoin="round"/>
</svg>
