<svg width="54" height="54" viewBox="0 0 54 54" fill="none" xmlns="http://www.w3.org/2000/svg">
<rect x="0.5" y="0.906006" width="53" height="53" rx="12" fill="#01BBC8" fill-opacity="0.2"/>
<path d="M25 37.406H29M23 30.406H31M20 24.406C20 22.5495 20.7375 20.769 22.0503 19.4563C23.363 18.1435 25.1435 17.406 27 17.406C28.8565 17.406 30.637 18.1435 31.9497 19.4563C33.2625 20.769 34 22.5495 34 24.406C34.0007 25.5331 33.7281 26.6435 33.2056 27.6422C32.6831 28.6408 31.9263 29.4979 31 30.14L30.458 32.706C30.3862 33.179 30.1473 33.6106 29.7846 33.9225C29.4219 34.2344 28.9594 34.4059 28.481 34.406H25.519C25.0406 34.4059 24.5781 34.2344 24.2154 33.9225C23.8527 33.6106 23.6138 33.179 23.542 32.706L23 30.151C22.0734 29.5066 21.3166 28.6475 20.7942 27.6471C20.2717 26.6467 19.9993 25.5346 20 24.406Z" stroke="#01BBC8" stroke-width="2" stroke-linecap="round" stroke-linejoin="round"/>
</svg>
