<svg width="16" height="23" viewBox="0 0 16 23" fill="none" xmlns="http://www.w3.org/2000/svg">
<path d="M4 14.5H12M6 21.5H10H6ZM1 8.5C1 6.64348 1.7375 4.86301 3.05025 3.55025C4.36301 2.2375 6.14349 1.5 8 1.5C9.85652 1.5 11.637 2.2375 12.9497 3.55025C14.2625 4.86301 15 6.64348 15 8.5C15.0007 9.62707 14.7281 10.7375 14.2056 11.7362C13.6831 12.7348 12.9263 13.5919 12 14.234L11.458 16.8C11.3862 17.273 11.1473 17.7046 10.7846 18.0165C10.4219 18.3284 9.95938 18.4999 9.481 18.5H6.519C6.04062 18.4999 5.57811 18.3284 5.21539 18.0165C4.85267 17.7046 4.61376 17.273 4.542 16.8L4 14.245C3.07341 13.6006 2.31657 12.7415 1.79415 11.7411C1.27173 10.7407 0.999256 9.62862 1 8.5V8.5Z" stroke="#FF9A62" stroke-width="2" stroke-linecap="round" stroke-linejoin="round"/>
</svg>
