<svg width="19" height="18" viewBox="0 0 19 18" fill="none" xmlns="http://www.w3.org/2000/svg">
<path d="M9.45205 4.64375C6.79189 4.64375 4.64502 6.58935 4.64502 9.00012C4.64502 11.4109 6.79189 13.3565 9.45205 13.3565C12.1122 13.3565 14.2591 11.4109 14.2591 9.00012C14.2591 6.58935 12.1122 4.64375 9.45205 4.64375ZM9.45205 11.8314C7.73174 11.8314 6.32783 10.5592 6.32783 9.00012C6.32783 7.44108 7.73174 6.1688 9.45205 6.1688C11.1724 6.1688 12.5763 7.44108 12.5763 9.00012C12.5763 10.5592 11.1724 11.8314 9.45205 11.8314ZM14.456 3.45005C13.8349 3.45005 13.3333 3.90459 13.3333 4.46745C13.3333 5.03032 13.8349 5.48486 14.456 5.48486C15.0771 5.48486 15.5786 5.03244 15.5786 4.46745C15.5788 4.3338 15.5499 4.20142 15.4935 4.07791C15.4372 3.9544 15.3545 3.84217 15.2502 3.74766C15.1459 3.65315 15.0221 3.57822 14.8858 3.52715C14.7495 3.47608 14.6034 3.44988 14.456 3.45005ZM18.8224 9.00012C18.8224 7.82766 18.8341 6.66582 18.7614 5.49548C18.6888 4.1361 18.3466 2.92966 17.2497 1.93562C16.1505 0.93945 14.8216 0.631467 13.3216 0.565622C12.0278 0.499777 10.7458 0.510397 9.45439 0.510397C8.16064 0.510397 6.87861 0.499777 5.5872 0.565622C4.0872 0.631467 2.75595 0.941574 1.65908 1.93562C0.559859 2.93178 0.220015 4.1361 0.147358 5.49548C0.0747022 6.66794 0.086421 7.82978 0.086421 9.00012C0.086421 10.1705 0.0747022 11.3344 0.147358 12.5048C0.220015 13.8641 0.562202 15.0706 1.65908 16.0646C2.7583 17.0608 4.0872 17.3688 5.5872 17.4346C6.88095 17.5005 8.16298 17.4898 9.45439 17.4898C10.7481 17.4898 12.0302 17.5005 13.3216 17.4346C14.8216 17.3688 16.1528 17.0587 17.2497 16.0646C18.3489 15.0685 18.6888 13.8641 18.7614 12.5048C18.8364 11.3344 18.8224 10.1726 18.8224 9.00012ZM16.7599 14.0086C16.5888 14.3951 16.3825 14.684 16.0521 14.9814C15.7216 15.2809 15.4052 15.4678 14.9786 15.6228C13.7458 16.0667 10.8185 15.9669 9.45205 15.9669C8.08564 15.9669 5.15595 16.0667 3.92314 15.6249C3.49658 15.4699 3.17783 15.283 2.8497 14.9835C2.51923 14.684 2.31298 14.3973 2.14189 14.0107C1.65439 12.8913 1.76455 10.2384 1.76455 9.00012C1.76455 7.76181 1.65439 5.10678 2.14189 3.98955C2.31298 3.60298 2.51923 3.31411 2.8497 3.01674C3.18017 2.71938 3.49658 2.53034 3.92314 2.37529C5.15595 1.93349 8.08564 2.03332 9.45205 2.03332C10.8185 2.03332 13.7481 1.93349 14.981 2.37529C15.4075 2.53034 15.7263 2.71726 16.0544 3.01674C16.3849 3.31623 16.5911 3.60298 16.7622 3.98955C17.2497 5.10678 17.1396 7.76181 17.1396 9.00012C17.1396 10.2384 17.2497 12.8913 16.7599 14.0086Z" fill="black"/>
</svg>
