<svg width="51" height="50" viewBox="0 0 51 50" fill="none" xmlns="http://www.w3.org/2000/svg">
<circle cx="25.5" cy="25" r="25" fill="#FFFDFD"/>
<path d="M34.7372 9H16.2628C12.5422 9 9.5 12.0429 9.5 15.7571V34.2357C9.5 37.9571 12.5422 41 16.2628 41H34.7372C38.4578 41 41.5 37.9571 41.5 34.2429V15.7571C41.5 12.0429 38.4578 9 34.7372 9ZM31.1666 31.6C29.1742 35.0429 24.7466 36.2357 21.2974 34.2571C19.662 37.1 17.3768 34.8714 18.2766 33.3143L19.3978 31.3714C19.8191 30.6357 20.7689 30.3786 21.5045 30.8071C22.8327 31.5786 21.4973 30.8 22.8256 31.5714C24.7966 32.7071 27.3532 32.0214 28.4958 30.05C29.6312 28.0786 28.9457 25.5214 26.9747 24.3786C25.7035 23.65 26.9318 24.35 25.6464 23.6214C23.8896 22.6071 25.4036 19.9143 27.1889 20.9429C28.5172 21.7143 27.1818 20.9357 28.51 21.7071C31.9664 23.7071 33.159 28.1571 31.1666 31.6ZM32.7234 16.6857C31.5094 18.7929 31.5594 18.7429 31.3665 18.9357C30.9024 19.4 30.2025 19.5571 29.4741 19.1929C28.1458 18.4214 29.4813 19.2 28.153 18.4286C26.182 17.2929 23.6254 17.9786 22.4828 19.95C21.3402 21.9214 22.0329 24.4786 24.0039 25.6214C24.0039 25.6214 25.325 26.3786 25.3322 26.3786C27.0889 27.3929 25.575 30.0857 23.7897 29.0571C22.4614 28.2857 23.7968 29.0643 22.4685 28.2929C19.0264 26.3071 17.8339 21.8571 19.8191 18.4071C21.8115 14.9643 26.2391 13.7714 29.6884 15.75L30.0311 15.15C31.0523 13.3714 33.7446 14.9143 32.7234 16.6857Z" fill="#2518B8"/>
</svg>
