<svg width="713" height="1013" viewBox="0 0 713 1013" fill="none" xmlns="http://www.w3.org/2000/svg">
<g clip-path="url(#clip0_38_46)">
<path fill-rule="evenodd" clip-rule="evenodd" d="M551.892 327.304C638.205 221.841 854.415 521.356 1092.53 587.909C1251.27 632.278 1333.41 618.738 1338.95 547.292L1256.77 1137.41C1115.58 939.596 1013.94 842.874 951.844 847.248C889.749 851.62 843.801 883.397 813.999 942.574C855.429 687.845 827.603 593.107 730.519 658.358C584.894 756.236 465.579 432.768 551.892 327.304Z" fill="url(#paint0_linear_38_46)"/>
<path fill-rule="evenodd" clip-rule="evenodd" d="M183.681 35.1649C108.291 -78.443 458.553 116.968 696.665 183.521C855.405 227.89 951.967 234.297 986.349 202.744C749.415 349.797 599.965 411.648 538 388.294C476.036 364.944 436.083 414.907 418.139 538.184C459.569 283.456 431.742 188.718 334.658 253.969C189.033 351.847 259.069 148.771 183.681 35.1635L183.681 35.1649Z" fill="url(#paint1_linear_38_46)"/>
<path fill-rule="evenodd" clip-rule="evenodd" d="M46.8148 393.019C90.7184 484.567 219.396 399.024 457.506 465.576C616.247 509.945 635.322 490.915 514.731 408.483C407.048 633.87 335.086 721.16 298.843 670.351C262.599 619.544 231.249 633.97 204.79 713.628C229.014 529.975 192.583 470.774 95.4993 536.026C-50.1237 633.903 2.91236 301.472 46.816 393.019L46.8148 393.019Z" fill="url(#paint2_linear_38_46)"/>
<path fill-rule="evenodd" clip-rule="evenodd" d="M1022.89 1121.94C922.7 1207.73 752.901 867.481 527.991 752.072C378.05 675.134 295.206 671.266 279.459 740.467L445.204 435.495C500.395 568.766 603.32 603.754 753.98 540.46C979.969 445.517 757.182 635.401 961.955 673.53C1166.73 711.657 1123.07 1036.16 1022.89 1121.94Z" fill="url(#paint3_linear_38_46)"/>
<path fill-rule="evenodd" clip-rule="evenodd" d="M445.737 562.715C445.663 562.368 446.049 561.839 445.924 561.513C446.698 561.366 446.8 561.118 447.543 559.963C447.899 560.792 446.412 561.323 445.737 562.715ZM444.595 562.72C443.676 563.472 442.947 566.186 441.47 565.99C442.852 564.22 443.409 563.516 443.319 562.55C443.831 562.329 444.247 562.416 445.082 561.174C444.967 561.744 444.543 562.438 444.731 562.892C444.368 563.25 444.429 562.911 444.595 562.72ZM453.936 550.892C452.404 550.986 455.354 548.83 456.187 547.335C456.133 547.731 455.648 548.291 456.002 548.529C455.277 549.147 453.658 549.985 453.936 550.892ZM582.768 476.087C577.943 475.387 572.831 472.996 567.82 472.708C568.881 472.397 571.551 472.781 574.492 473.56C577.435 474.328 580.614 475.496 582.768 476.087ZM399.62 609.528C399.022 609.727 398.456 609.894 398.541 609.439C395.667 610.351 394.972 611.502 392.177 612.172C392.423 612.679 392.849 613.065 393.915 612.989C394.762 612.15 396.176 610.705 397.878 611.146C397.847 610.69 398.042 610.3 398.653 609.895C398.714 610.123 399.575 609.859 399.62 609.528ZM391.659 612.281C389.376 612.518 390.377 614.111 391.778 613.219C391.877 613.5 392.007 613.744 392.898 613.46C392.931 612.746 391.611 613.007 391.659 612.281ZM413.44 600.728C414.373 600.476 416.803 598.357 416.543 597.554C416.213 598.056 415.42 598.653 414.725 599.228C414.011 599.779 413.388 600.296 413.44 600.728ZM418.032 596.38C419.675 595.002 422.852 591.853 421.806 591.766C420.691 593.29 418.54 595.075 418.032 596.38ZM412.708 598.22C412.512 598.988 411.855 599.809 410.993 600.638C410.563 601.053 410.08 601.469 409.579 601.883C409.096 602.295 408.44 602.713 407.881 603.116C406.728 603.951 405.6 604.628 404.806 605.273C404.018 605.932 403.543 606.499 403.692 607.028C405.65 605.58 405.305 605.818 407.357 605.074C406.524 603.932 408.863 603.81 409.134 602.639C409.714 602.278 409.673 602.755 410.134 602.508C411.25 601.308 410.851 600.949 413.035 599.915C413.008 599.259 413.659 598.762 414.441 598.162C415.216 597.552 416.152 596.876 416.748 595.974L416.533 595.58C416.301 595.745 416.081 595.892 416.057 595.669C415.127 596.646 415.126 597.472 413.886 598.489C413.675 598.092 412.707 598.972 412.708 598.22ZM428.889 582.421C428.522 581.852 427.709 582.4 427.158 582.302C426.612 582.841 426.081 583.396 425.512 583.913C425.815 584.562 424.697 585.611 423.974 586.552C423.587 586.212 422.82 586.391 423.254 585.424C422.913 586.689 422.215 588.401 423.315 588.068C422.396 588.305 422.67 589 422.172 589.697C422.737 589.517 426.276 585.905 423.655 587.75C426.225 585.93 426.769 584.178 428.889 582.421ZM567.7 592.088C567.538 593.06 570.89 591.145 570.973 590.74C569.431 591.347 569.71 591.196 567.7 592.089L567.7 592.088ZM476.332 507.786L473.786 509.784C474.077 509.753 475.575 508.726 477.01 507.59C478.442 506.446 479.869 505.297 479.915 504.816C477.993 506.194 477.016 506.995 476.332 507.786ZM506.485 484.915C509.313 484.589 515.868 481.291 518.643 479.865C516.583 480.529 514.555 481.328 512.568 482.258L509.653 483.545C508.658 484.001 507.619 484.464 506.485 484.915ZM533.699 475.126C532.692 475.305 528.993 475.816 527.68 477.1C528.193 476.888 529.141 476.575 530.198 476.249L533.378 475.407C535.269 474.911 536.265 474.634 533.699 475.126ZM513.01 607.587C510.984 607.146 507.496 606.897 503.857 606.012C502.036 605.648 500.198 605.026 498.501 604.407C496.975 603.807 495.494 603.055 494.072 602.157C495.764 602.834 497.261 603.513 498.702 603.97C500.147 604.398 501.496 604.904 502.878 605.18C504.259 605.466 505.652 605.855 507.163 606.025C508.677 606.252 510.305 606.477 512.143 606.566C512.116 606.024 510.226 606.336 509.434 606.067C515.072 606.662 520.148 606.446 524.822 605.928C529.498 605.398 533.787 604.552 537.9 603.552C546.121 601.478 553.577 598.884 561.876 595.436C563.121 594.741 562.419 594.374 562.82 594.033C565.652 592.822 568.453 591.509 571.219 590.093C571.173 591.442 572.786 590.577 573.771 590.558C574.917 590.113 573.105 589.705 574.243 589.251C574.005 588.821 573.068 589.345 572.093 589.892C577.4 586.791 584.043 582.638 590.484 576.366C593.674 573.267 596.869 569.544 599.61 565.316C602.353 561.102 604.727 556.424 606.464 551.393C606.229 550.856 607.635 548.338 606.8 548.53C608.643 544.947 609.484 540.898 609.779 536.75C610.068 532.581 609.835 528.323 609.429 523.759C608.987 525.149 609.197 521.581 608.115 519.916C607.757 518.497 608.089 519.185 608.356 519.228C606.382 511.118 602.337 503.967 597.449 498.502C592.551 492.998 586.818 489.017 580.939 486.515C575.098 484.04 569.285 482.928 563.962 482.641C558.629 482.342 553.774 482.795 549.561 483.522C546.114 483.403 542.363 483.937 537.864 485.553C530.476 486.98 522.215 489.168 516.205 493.404C515.956 493.077 516.399 492.855 516.877 492.635C513.567 493.603 508.082 495.995 504.39 498.382C503.537 498.832 505.081 498.692 504.766 499.477C504.007 499.973 502.161 500.493 502.172 501.066C500.184 501.259 504.339 499.872 503.382 499.387C500.668 500.206 498.192 502.211 496.064 504.199C490.254 507.131 484.345 511.498 479.138 516.145C473.909 520.775 469.394 525.68 465.84 529.339C465.606 530.383 467.493 528.329 466.537 529.577C465.945 530.037 466.032 530.306 466.149 530.567C464.908 531.616 465.906 529.882 464.895 530.297C459.315 536.993 456.679 539.917 453.436 545.25C453.612 543.821 452.912 545.831 452.273 545.927C451.483 547.731 451.332 549.282 449.375 551.566C448.857 551.072 450.967 549.043 451.355 547.631C447.266 552.429 443.612 556.58 440.447 563.239C441.316 563.627 442.066 560.902 442.639 561.692C441.068 564.732 439.66 566.845 437.339 568.715C437.269 568.442 437.847 567.917 437.675 567.683C437.833 568.102 434.485 571.707 435.236 572.635C433.38 573.772 432.322 575.41 432.759 576.883C431.735 577.547 430.453 578.948 429.71 578.828C429.456 579.359 430.096 579.186 429.114 580.348C430.98 579.91 431.669 578.642 434.158 575.723C434.505 574.757 433.735 575.602 433.505 574.838C434.971 573.524 434.242 575.204 435.719 574.031C437.991 571.195 437.624 570.579 440.093 567.875C440.425 569.838 437.312 572.566 435.672 574.725C435.441 575.587 434.025 577.988 434.117 577.974C433.922 578.846 433.308 578.496 433.408 577.775C430.591 581.179 431.091 582.054 431.137 583.256C430.045 584.018 429.659 583.798 429.72 582.824C429.136 583.615 428.409 584.443 427.658 585.28C426.898 586.108 426.085 586.922 425.385 587.737C423.984 589.368 422.942 590.939 423.216 592.298C422.776 592.487 422.579 592.177 421.91 592.844C421.86 594.317 418.945 595.147 418.953 597.072C417.04 597.359 415.05 600.388 413.453 601.82L412.95 600.799C411.928 601.661 410.934 602.569 409.969 603.522C408.909 604.421 407.866 605.388 406.697 606.232C407.624 606.358 408.646 605.504 409.746 604.527C410.808 603.537 411.714 602.399 412.859 601.688C410.498 604.549 407.175 607.427 403.779 609.639C400.329 611.893 396.581 613.812 392.045 615.33L395.897 613.515C397.1 612.873 398.317 612.348 399.467 611.675C400.626 611.019 401.803 610.404 402.953 609.626C403.527 609.248 404.112 608.862 404.71 608.472L406.478 607.129C405.181 607.18 404.3 608.858 403.108 608.565C401.898 609.728 399.636 611.238 397.274 612.304C396.102 612.853 394.922 613.311 393.858 613.577C392.803 613.861 391.927 614.057 391.318 614.006C389.692 615.599 384.594 616.475 378.846 616.446C376.635 615.601 380.811 616.226 380.873 615.803C380.75 615.004 377.764 616.033 378.38 614.93C381.342 615.365 381.205 615.052 382.109 615.9C382.189 614.849 383.796 615.811 383.965 614.803C385.244 614.747 385.091 615.156 385.154 615.537C385.553 614.861 385.753 614.083 388.003 614.44C387.883 613.758 386.56 613.724 385.212 613.922C383.84 614.074 382.365 614.363 382.171 614.717C381.43 614.629 380.603 614.455 379.755 614.291C378.904 614.115 378.062 614.019 377.172 613.822C375.377 613.389 373.613 613.097 371.905 612.644C370.465 611.95 370.687 611.434 370.968 610.94C370.817 611.032 370.429 610.939 369.953 610.593C369.423 610.208 368.923 609.765 368.459 609.27C367.524 608.267 366.957 607.264 367.78 607.394C366.918 606.537 366.27 605.714 365.691 605.102C365.128 604.45 364.611 603.984 364.198 603.408C363.376 602.28 362.523 601.285 361.647 599.389C363.358 600.876 361.41 598.72 363.261 599.834C363.23 598.96 362.177 596.916 361.709 595.46C362.172 594.454 363.524 596.862 364.243 596.847C362.772 594.383 365.415 597.012 363.027 593.595C363.943 594.157 365.149 595.603 363.864 592.972C364.257 592.111 365.416 594.719 365.919 594.396C366.419 593.81 365.769 592.341 366.32 591.827C366.606 591.329 367.178 592.385 367.41 591.625L368.671 592.778C369.09 593.156 369.597 593.439 370.049 593.767C370.529 594.062 370.94 594.438 371.457 594.655L372.943 595.361C374.958 596.165 377.031 596.644 379.17 596.626C380.215 596.713 381.305 596.539 382.358 596.475C382.891 596.41 383.432 596.284 383.965 596.198C384.504 596.122 385.039 596.005 385.566 595.848C387.702 595.381 389.836 594.499 391.936 593.633C395.233 592.144 398.368 590.18 401.275 587.786L402.358 586.885L403.484 585.854L405.741 583.802C407.242 582.42 408.685 580.888 410.164 579.449C415.979 573.419 421.488 566.617 427.01 559.529C433.698 550.999 441.365 540.581 448.981 531.438C455.478 523.613 461.694 516.695 468.137 510.734C474.37 504.917 480.948 499.658 487.818 494.999C494.7 490.363 502.03 486.087 510.475 482.341C518.914 478.59 528.443 475.234 539.74 472.95C548.769 471.148 559.404 469.727 570.831 471.577C573.672 472.031 576.55 472.713 579.405 473.653C580.835 474.088 582.249 474.66 583.665 475.219C585.103 475.86 586.541 476.491 587.921 477.255C590.681 478.707 593.334 480.44 595.85 482.435C598.333 484.368 600.671 486.561 602.836 488.988C604.809 491.172 605.594 492.381 605.79 492.657C605.972 492.958 605.507 492.444 604.758 491.583C604.022 490.697 602.927 489.616 601.952 488.572L599.608 486.329C594.956 482.156 590.142 478.971 585.135 476.696C580.161 474.409 575.317 473.042 570.475 472.232C560.805 470.635 551.485 471.314 542.044 473.277C544.284 473.215 548.64 472.64 551.594 472.182C547.447 472.848 543.318 473.67 539.214 474.648C537.122 475.14 535.003 475.627 532.884 476.222C530.754 476.757 528.627 477.402 526.499 478.044C517.982 480.607 509.592 484.043 502.236 487.915C502.593 487.022 503.667 486.975 505.378 485.912C499.469 487.956 495.46 491.25 488.907 494.98C489.963 494.892 491.02 494.24 492.292 493.378C493.558 492.515 495.032 491.411 496.958 490.618C497.603 490.295 498.461 489.693 498.65 489.975L497.037 490.834C490.489 495.014 483.933 499.541 477.824 504.484C471.726 509.409 466.045 514.786 461.345 520.305C465.016 516.568 469.27 512.855 473.694 509.077C478.136 505.299 482.855 501.583 487.589 497.677C487.433 498.014 487.285 498.345 487.773 498.097C496.477 492.149 505.249 487.617 513.666 483.921C502.479 489.362 491.124 495.732 480.287 504.546C485.941 501.101 491.581 496.284 499.111 492.582C499.996 492.232 499.758 491.87 499.674 491.506C505.133 489.405 510.453 486.69 515.688 484.626C520.6 482.736 525.576 481.095 530.603 479.707C535.598 478.415 540.526 477.293 545.594 476.531C555.696 475.037 566.478 474.728 577.578 478.145C580.327 478.974 583.102 480.108 585.87 481.514C588.646 482.919 591.317 484.612 593.851 486.574C598.99 490.489 603.754 495.638 607.668 502.154C609.667 505.527 611.324 509.175 612.603 513.023C613.906 516.967 614.855 521.245 615.234 525.579C615.628 529.905 615.63 534.318 615.117 538.599C614.613 542.871 613.738 547.068 612.506 551.12C611.646 553.771 610.706 556.222 609.231 559.63C608.935 560.302 608.615 560.959 608.272 561.6C607.909 562.234 607.516 562.853 607.126 563.477C606.361 564.735 605.507 565.904 604.776 567.131C602.877 570.204 600.942 573.482 598.706 576.207C596.534 578.91 594.284 581.079 591.997 582.151C590.697 583.576 587.244 586.084 588.767 584.641C591.744 581.794 594.618 579.016 597.211 576.155C599.862 573.212 602.167 570.196 604.008 567.196C607.818 560.869 610.815 553.832 612.63 546.173C613.551 542.355 614.091 538.352 614.323 534.306C614.564 530.255 614.292 526.114 613.695 522.078C612.432 513.945 609.372 506.503 605.452 500.594C603.535 497.691 601.392 495.018 599.051 492.61C596.796 490.332 594.388 488.283 591.853 486.484C595.967 489.839 599.907 493.719 603.316 498.434C605.056 500.741 606.587 503.342 608.023 506.015C609.393 508.759 610.645 511.624 611.591 514.677C613.557 520.757 614.343 527.331 614.168 533.474C614 539.323 613.002 545.093 611.218 550.535C609.676 555.284 607.518 560.264 604.937 564.718C602.378 569.176 599.371 573.132 596.563 576.034C590.244 582.576 583.234 587.577 576.173 591.589C569.088 595.604 561.954 598.683 554.886 601.396C547.776 604.126 540.378 606.495 532.652 607.85C524.949 609.209 516.85 609.518 508.809 607.887C510.687 607.55 512.12 607.681 513.01 607.587ZM428.65 584.505C429.193 583.867 429.94 584.946 428.817 585.573C428.779 585.36 429.025 585.058 428.899 584.875C427.158 586.021 428.958 586.071 427.595 587.068C427.96 585.52 426.718 587.929 425.415 588.808C426.399 587.095 427.73 585.77 428.65 584.506L428.65 584.505ZM446.154 558.939C446.855 558.661 447.267 557.347 448.518 556.186C448.107 557.9 446.805 559.087 446.677 560.308C445.629 561.068 446.088 559.366 446.154 558.939ZM451.601 552.934C451.827 552.611 451.933 552.676 452.031 552.762C452.295 551.957 451.758 550.869 452.961 550.373C453.286 550.838 451.843 552.012 452.758 552.249C452.213 552.993 451.809 553.285 451.602 552.932L451.601 552.934ZM450.561 554.472C449.757 554.959 451.077 551.891 451.782 551.737C452.177 552.331 450.769 553.639 450.561 554.472ZM454.761 547.658L455.165 548.176C454.61 548.736 453.822 550.042 453.712 549.185C454.26 548.599 454.17 548.26 454.761 547.658ZM461.796 539.506C462.155 539.198 462.261 539.638 462.66 539.213C462.566 539.984 460.93 541.281 460.946 542.012C459.839 542.477 461.16 540.244 462.058 539.862L461.796 539.507L461.796 539.506ZM459.95 542.147C459.319 542.595 457.041 545.194 457.372 545.992C456.604 546.111 456.498 546.358 455.757 547.498C455.173 547.275 456.072 546.48 455.808 546.131C457.727 544.956 458.704 541.521 459.95 542.147ZM481.266 519.763C482.468 518.593 482.201 520.368 482.692 520.626C481.672 521.391 481 520.348 481.266 519.763ZM493.993 509.17C493.607 509.826 492.777 510.496 491.648 511.176C491.659 510.511 493.47 509.214 493.993 509.17ZM468.432 529.265C468.363 529.576 468.302 529.885 468.486 530.126C467.336 529.844 465.049 535.429 464.661 533.027C465.504 532.933 466.078 532.059 466.624 531.164C467.182 530.287 467.718 529.402 468.432 529.265ZM498.288 506.333C497.637 507.277 495.652 508.483 494.353 510.013C494.786 509.357 495.382 508.695 495.35 508.051C496.863 507.399 497.293 506.333 498.288 506.333ZM471.724 525.551C472.049 525.413 472.377 525.267 472.822 524.854C473.381 525.159 472.412 525.822 472.642 526.203C471.972 526.537 471.383 526.299 471.724 525.551ZM469.583 527.849C469.27 527.503 470.65 526.654 471.07 526.14C471.155 526.625 470.669 527.249 471.022 527.675C469.926 528.527 470.02 527.632 469.583 527.849ZM522.825 493.959C522.473 494.982 519.451 495.461 518.275 496.327C518.933 494.838 520.679 495.156 522.825 493.959ZM523.752 490.471C523.484 490.775 523.434 491.125 523.553 491.515C522.745 491.755 521.95 492.042 521.153 492.326C521.219 491.093 522.671 491.456 523.752 490.471ZM543.421 601.342C547.064 599.368 553.942 598.1 561.619 594.541C558.137 596.613 549.257 599.527 543.421 601.342ZM561.872 600.209C564.052 598.924 565.442 598.391 565.598 598.451C565.751 598.523 564.655 599.213 561.872 600.209ZM575.89 593.561C577.74 592.153 579.124 591.367 579.365 591.357C579.604 591.327 578.691 592.154 575.89 593.561ZM532.76 477.757C532.896 476.671 536.658 476.629 538.337 476.098C539.377 476.152 538.168 476.374 536.605 476.667C535.037 476.95 533.136 477.433 532.76 477.757ZM559.119 471.996C558.62 472.318 557.334 472.28 556.037 472.222C554.756 472.208 553.464 472.181 553.005 472.569C552.41 472.222 553.782 472.001 555.392 471.928C557.003 471.855 558.844 471.93 559.119 471.996ZM562.015 471.639C562.429 471.623 562.466 471.762 562.488 471.908C569.63 472.065 562.476 473.139 562.015 471.639ZM604.326 491.994C602.229 489.987 600.872 488.534 600.73 488.25C600.585 487.965 601.747 488.754 604.326 491.994ZM597.059 484.942C596.27 484.295 595.219 483.621 594.094 482.849C592.942 482.144 591.712 481.346 590.468 480.654C588.007 479.194 585.576 477.946 584.266 476.753C586.535 477.781 589.085 479.233 591.413 480.684C593.716 482.197 595.77 483.765 597.059 484.942ZM606.495 571.072C605.242 573.143 605.598 572.706 606.49 571.417C607.388 570.137 608.707 567.893 609.475 566.486C611.582 562.8 613.507 558.005 613.603 556.564C613.173 557.605 612.702 558.824 612.158 560.092C611.585 561.327 611.006 562.678 610.359 563.973C609.153 566.403 607.864 568.771 606.495 571.072Z" fill="url(#paint4_linear_38_46)"/>
<path fill-rule="evenodd" clip-rule="evenodd" d="M127.501 12.1722L129.533 13.2988L130.085 15.6859L129.435 17.9581L127.501 18.9346L125.68 17.8255L124.477 15.6873L125.386 13.2028L127.501 12.1722Z" fill="#535FD7" fill-opacity="0.24"/>
<path fill-rule="evenodd" clip-rule="evenodd" d="M48.5731 58.1562L51.8241 59.9604L52.7067 63.7784L51.6682 67.4139L48.5731 68.976L45.6575 67.2042L43.7353 63.7771L45.1876 59.8008L48.5731 58.1562Z" fill="#61EFFD"/>
<path fill-rule="evenodd" clip-rule="evenodd" d="M99.037 51.3938L102.288 53.198L103.171 57.016L102.132 60.6515L99.037 62.2136L96.1213 60.4418L94.1992 57.0147L95.6514 53.0384L99.037 51.3938Z" fill="#7C85E1"/>
<path fill-rule="evenodd" clip-rule="evenodd" d="M121.894 97.3778L123.926 98.5044L124.477 100.892L123.828 103.164L121.894 104.14L120.073 103.031L118.87 100.893L119.779 98.4084L121.894 97.3778ZM72.5513 81.1482L74.5833 82.2748L75.1351 84.6619L74.4858 86.9341L72.5513 87.9105L70.7301 86.8015L69.528 84.6633L70.4363 82.1788L72.5513 81.1482Z" fill="#2FEAFC"/>
<path fill-rule="evenodd" clip-rule="evenodd" d="M72.5513 5.40988L74.5833 6.53649L75.135 8.9236L74.4857 11.1957L72.5513 12.1722L70.7301 11.0632L69.528 8.92495L70.4363 6.44046L72.5513 5.40988Z" fill="#93F4FE"/>
<path fill-rule="evenodd" clip-rule="evenodd" d="M136.472 58.1562L138.504 59.2828L139.056 61.6699L138.407 63.9421L136.472 64.9185L134.651 63.8095L133.449 61.6713L134.357 59.1868L136.472 58.1562Z" fill="#61EFFD" fill-opacity="0.24"/>
<path fill-rule="evenodd" clip-rule="evenodd" d="M192.456 85.2056L193.675 85.8818L194.005 87.3141L193.616 88.6774L192.456 89.263L191.362 88.5976L190.641 87.3127L191.186 85.8237L192.456 85.2056ZM691.574 816.892L693.606 818.019L694.158 820.406L693.509 822.678L691.574 823.654L689.753 822.545L688.551 820.406L689.459 817.921L691.574 816.892Z" fill="white"/>
<path fill-rule="evenodd" clip-rule="evenodd" d="M710.639 791.195L712.671 792.322L713.223 794.709L712.573 796.981L710.639 797.957L708.817 796.848L707.615 794.709L708.524 792.224L710.639 791.195Z" fill="white"/>
<path fill-rule="evenodd" clip-rule="evenodd" d="M679.932 420.618L683.183 422.422L684.065 426.24L683.027 429.876L679.932 431.438L677.016 429.666L675.094 426.24L676.546 422.264L679.932 420.618Z" fill="white" fill-opacity="0.64"/>
<path fill-rule="evenodd" clip-rule="evenodd" d="M717.367 431.438L719.399 432.565L719.951 434.952L719.302 437.224L717.367 438.2L715.546 437.091L714.344 434.952L715.252 432.467L717.367 431.438ZM685.967 455.782L687.999 456.909L688.551 459.296L687.902 461.568L685.967 462.545L684.146 461.436L682.944 459.296L683.852 456.812L685.967 455.782ZM667.937 818.244L669.156 818.921L669.487 820.353L669.098 821.716L667.937 822.302L666.844 821.636L666.123 820.352L666.668 818.862L667.937 818.244Z" fill="white"/>
<path fill-rule="evenodd" clip-rule="evenodd" d="M479.305 707.427C479.506 706.917 479.888 706.488 480.029 705.953C480.168 705.417 480.395 704.918 480.49 704.362C480.586 703.805 480.183 703.014 480.243 702.438C480.305 701.862 479.875 701.054 479.91 700.46C479.944 699.868 480.123 699.345 480.143 698.743C480.166 698.145 480.28 697.588 480.299 696.985C480.316 696.38 480.955 696.081 480.977 695.477C480.997 694.873 480.248 693.881 480.286 693.28C480.326 692.682 480.762 692.283 480.832 691.698C480.908 691.035 481.042 690.398 481.209 689.777C481.379 689.159 481.993 688.779 482.203 688.185C482.414 687.589 482.498 686.924 482.709 686.327C482.92 685.732 482.866 684.987 483.032 684.366C483.197 683.753 483.711 683.341 483.92 682.757C484.13 682.174 483.957 681.368 484.212 680.806C484.468 680.248 484.517 679.566 484.821 679.035C485.121 678.502 486.088 678.373 486.44 677.876C486.757 677.429 486.378 676.55 486.757 676.139C487.135 675.728 488.26 675.79 488.668 675.406C489.075 675.019 488.738 674.156 489.156 673.778C489.576 673.399 490.319 673.237 490.726 672.855C491.132 672.472 491.889 672.324 492.251 671.919C492.361 671.798 493.051 672.252 492.958 672.385C492.615 672.871 492.662 673.613 492.4 674.151C492.136 674.691 491.293 674.862 491.095 675.447C490.897 676.031 491.327 677 491.185 677.615C491.04 678.226 490.734 678.737 490.623 679.37C490.511 680 490.631 680.767 490.532 681.401C490.436 682.037 490.479 682.755 490.38 683.387C490.279 684.017 489.896 684.485 489.779 685.105C489.661 685.725 489.286 686.197 489.134 686.795C488.977 687.402 489.211 688.227 489.01 688.806C488.813 689.388 488.652 689.991 488.371 690.525C488.089 691.061 487.833 691.614 487.434 692.085C487.034 692.555 486.304 692.851 485.749 693.242C485.191 693.635 484.897 694.167 484.543 694.666C484.185 695.17 483.399 695.447 483.184 696.026C482.97 696.606 482.876 697.247 482.747 697.868C482.617 698.487 482.674 699.2 482.572 699.833C482.483 700.401 482.33 700.938 482.217 701.494C482.101 702.048 482.022 702.618 481.863 703.149C481.706 703.682 481.618 704.249 481.405 704.756C481.192 705.263 480.781 705.678 480.501 706.156C480.221 706.633 480.058 707.166 479.69 707.607C479.654 707.649 479.283 707.478 479.305 707.427Z" fill="#61EFFD"/>
<path fill-rule="evenodd" clip-rule="evenodd" d="M480.288 628.274C480.672 628.21 481.103 628.368 481.473 628.229C481.843 628.092 482.236 628.042 482.588 627.83C482.944 627.618 483.152 626.789 483.487 626.525C483.824 626.257 484.009 625.382 484.328 625.082C484.649 624.787 485.009 624.646 485.32 624.316C485.628 623.984 485.97 623.785 486.27 623.436C486.569 623.09 487.086 623.509 487.388 623.165C487.689 622.826 487.695 621.513 487.989 621.187C488.282 620.855 488.727 621.018 489.025 620.705C489.354 620.369 489.713 620.077 490.094 619.833C490.46 619.584 491.009 619.876 491.397 619.676C491.785 619.481 492.107 619.098 492.487 618.888C492.869 618.677 493.126 618.133 493.477 617.846C493.82 617.566 494.333 617.726 494.694 617.488C495.057 617.251 495.235 616.554 495.614 616.375C495.996 616.188 496.265 615.742 496.666 615.606C497.066 615.475 497.799 616.116 498.227 616.02C498.611 615.932 498.633 615.026 499.04 614.998C499.449 614.973 500.267 615.842 500.706 615.85C501.144 615.858 501.157 614.955 501.595 614.967C502.032 614.975 502.663 615.371 503.093 615.345C503.525 615.321 504.168 615.708 504.585 615.633C504.709 615.61 505.123 616.418 505.006 616.458C504.578 616.615 504.381 617.228 503.998 617.478C503.617 617.734 502.891 617.274 502.547 617.589C502.203 617.904 502.202 618.95 501.867 619.311C501.536 619.671 501.122 619.852 500.801 620.24C500.479 620.628 500.275 621.291 499.955 621.695C499.634 622.098 499.375 622.653 499.043 623.048C498.711 623.444 498.232 623.481 497.882 623.835C497.531 624.189 497.063 624.247 496.689 624.54C496.31 624.841 496.106 625.619 495.701 625.866C495.294 626.104 494.9 626.388 494.456 626.526C494.015 626.666 493.57 626.808 493.079 626.787C492.585 626.763 491.963 626.327 491.412 626.084C490.861 625.843 490.422 625.938 489.955 625.93C489.48 625.923 488.859 625.382 488.447 625.547C488.033 625.709 487.655 626.004 487.265 626.264C486.88 626.528 486.544 626.997 486.155 627.276C485.805 627.522 485.44 627.708 485.078 627.909C484.717 628.114 484.364 628.363 483.99 628.514C483.613 628.666 483.251 628.882 482.857 628.954C482.464 629.024 482.017 628.846 481.605 628.813C481.192 628.781 480.811 628.901 480.38 628.761C480.337 628.747 480.249 628.282 480.288 628.274Z" fill="#2FEAFC" fill-opacity="0.64"/>
<path fill-rule="evenodd" clip-rule="evenodd" d="M572.193 612.076C572.757 612.371 573.255 612.884 573.841 613.106C574.429 613.327 574.987 613.648 575.592 613.81C576.197 613.973 576.987 613.529 577.606 613.644C578.225 613.759 579.021 613.276 579.65 613.356C580.279 613.437 580.857 613.687 581.492 613.745C582.126 613.804 582.726 613.982 583.362 614.031C584.001 614.079 584.413 614.891 585.05 614.944C585.686 614.998 586.602 614.092 587.232 614.159C587.862 614.228 588.349 614.788 588.97 614.887C589.675 614.999 590.361 615.18 591.034 615.402C591.707 615.624 592.215 616.395 592.873 616.668C593.531 616.941 594.239 617.047 594.898 617.315C595.558 617.582 596.316 617.513 596.992 617.718C597.658 617.921 598.193 618.564 598.842 618.819C599.493 619.073 600.282 618.847 600.917 619.157C601.549 619.465 602.26 619.51 602.879 619.878C603.494 620.243 603.863 621.446 604.464 621.872C605.005 622.257 605.81 621.755 606.328 622.212C606.846 622.668 607.079 624.081 607.587 624.58C608.095 625.078 608.891 624.61 609.396 625.117C609.901 625.626 610.28 626.556 610.791 627.043C611.302 627.531 611.68 628.477 612.207 628.911C612.367 629.042 612.108 629.939 611.942 629.828C611.333 629.422 610.58 629.518 609.942 629.216C609.304 628.914 608.881 627.853 608.22 627.631C607.559 627.41 606.672 627.99 605.992 627.827C605.314 627.665 604.693 627.3 604.004 627.176C603.314 627.05 602.543 627.218 601.849 627.108C601.156 626.997 600.413 627.059 599.719 626.942C599.027 626.824 598.439 626.341 597.754 626.194C597.07 626.046 596.478 625.578 595.81 625.382C595.133 625.179 594.309 625.467 593.646 625.208C592.984 624.951 592.305 624.736 591.674 624.373C591.043 624.009 590.4 623.67 589.815 623.156C589.229 622.642 588.772 621.716 588.248 621.006C587.724 620.29 587.105 619.907 586.512 619.441C585.914 618.973 585.483 617.975 584.833 617.682C584.184 617.39 583.492 617.239 582.811 617.048C582.133 616.859 581.387 616.886 580.696 616.721C580.08 616.573 579.482 616.356 578.876 616.173C578.271 615.991 577.65 615.851 577.06 615.619C576.469 615.382 575.853 615.226 575.283 614.919C574.715 614.615 574.221 614.07 573.68 613.678C573.139 613.286 572.55 613.038 572.042 612.542C571.991 612.492 572.134 612.047 572.192 612.076" fill="white" fill-opacity="0.48"/>
<path fill-rule="evenodd" clip-rule="evenodd" d="M607.966 760.546C607.675 759.914 607.542 759.153 607.196 758.561C606.851 757.967 606.568 757.324 606.17 756.776C605.77 756.225 604.936 756.035 604.501 755.523C604.064 755.011 603.196 754.865 602.737 754.379C602.279 753.89 601.933 753.311 601.453 752.844C600.971 752.383 600.583 751.838 600.087 751.39C599.595 750.941 599.641 750.008 599.151 749.556C598.662 749.103 597.493 749.285 597.015 748.834C596.534 748.385 596.399 747.614 595.93 747.154C595.411 746.635 594.923 746.073 594.47 745.472C594.012 744.886 593.931 743.935 593.506 743.313C593.086 742.689 592.531 742.195 592.099 741.584C591.666 740.971 591.002 740.595 590.518 740.04C590.041 739.494 589.869 738.634 589.421 738.059C588.973 737.481 588.21 737.241 587.802 736.628C587.389 736.017 586.796 735.6 586.418 734.951C586.045 734.302 586.2 733.066 585.848 732.38C585.53 731.762 584.647 731.771 584.37 731.114C584.095 730.451 584.434 729.089 584.18 728.39C583.927 727.687 583.045 727.709 582.794 727.007C582.539 726.306 582.551 725.289 582.271 724.607C581.995 723.924 582 722.899 581.687 722.249C581.591 722.053 582.143 721.378 582.251 721.559C582.649 722.223 583.359 722.507 583.822 723.093C584.287 723.678 584.263 724.844 584.769 725.373C585.274 725.9 586.279 725.846 586.816 726.349C587.351 726.853 587.767 727.495 588.321 727.978C588.876 728.461 589.619 728.732 590.187 729.209C590.752 729.686 591.422 730.051 591.981 730.542C592.543 731.032 592.856 731.79 593.388 732.314C593.92 732.837 594.248 733.577 594.737 734.146C595.235 734.72 596.062 734.961 596.526 735.58C596.981 736.202 597.47 736.797 597.854 737.492C598.241 738.182 598.629 738.88 598.902 739.677C599.174 740.475 599.154 741.546 599.269 742.476C599.386 743.409 599.736 744.114 600.013 744.886C600.293 745.661 600.192 746.769 600.593 747.425C600.99 748.085 601.479 748.664 601.946 749.264C602.413 749.863 603.026 750.337 603.505 750.935C603.931 751.47 604.317 752.039 604.71 752.605C605.106 753.167 605.536 753.704 605.895 754.299C606.253 754.894 606.657 755.453 606.96 756.094C607.261 756.737 607.384 757.517 607.608 758.218C607.835 758.914 608.169 759.528 608.317 760.283C608.332 760.36 607.995 760.61 607.966 760.546ZM614.269 718.945C614.391 718.884 614.636 719.001 614.718 718.881C614.8 718.759 614.936 718.719 614.984 718.551C615.032 718.382 614.737 717.717 614.759 717.508C614.78 717.301 614.465 716.605 614.466 716.368C614.468 716.133 614.567 716.037 614.556 715.783C614.544 715.528 614.602 715.373 614.586 715.112C614.57 714.851 614.984 715.21 614.969 714.952C614.956 714.694 614.404 713.654 614.4 713.41C614.395 713.166 614.668 713.321 614.68 713.099C614.694 712.85 614.747 712.658 614.824 712.496C614.899 712.336 615.284 712.625 615.389 712.507C615.494 712.388 615.504 712.131 615.606 712.009C615.708 711.886 615.621 711.488 615.688 711.314C615.753 711.144 616.067 711.336 616.163 711.206C616.258 711.08 616.084 710.559 616.21 710.475C616.336 710.394 616.313 710.095 616.472 710.059C616.629 710.022 617.258 710.672 617.449 710.684C617.622 710.695 617.297 709.981 617.511 710.052C617.724 710.123 618.474 710.977 618.709 711.083C618.946 711.187 618.641 710.498 618.883 710.609C619.125 710.724 619.603 711.183 619.833 711.279C620.064 711.374 620.55 711.843 620.751 711.897C620.811 711.91 621.312 712.641 621.263 712.643C621.083 712.649 621.185 713.063 621.064 713.153C620.942 713.243 620.396 712.715 620.32 712.869C620.243 713.026 620.616 713.832 620.573 714.035C620.529 714.238 620.372 714.277 620.35 714.511C620.328 714.745 620.47 715.215 620.455 715.461C620.442 715.707 620.525 716.094 620.507 716.333C620.489 716.574 620.266 716.517 620.231 716.732C620.197 716.948 619.983 716.904 619.92 717.078C619.855 717.254 620.066 717.83 619.97 717.96C619.873 718.09 619.804 718.258 619.648 718.304C619.493 718.348 619.352 718.412 619.112 718.333C618.871 718.255 618.4 717.837 618.049 717.594C617.696 717.35 617.528 717.376 617.315 717.334C617.1 717.291 616.588 716.813 616.472 716.915C616.357 717.015 616.321 717.232 616.262 717.415C616.204 717.6 616.269 717.964 616.225 718.171C616.186 718.356 616.108 718.482 616.049 718.639C615.991 718.796 615.956 718.988 615.869 719.099C615.78 719.214 615.736 719.392 615.609 719.448C615.481 719.502 615.217 719.361 615.04 719.345C614.863 719.329 614.768 719.431 614.531 719.329C614.434 719.211 614.346 719.082 614.269 718.945Z" fill="white"/>
<g filter="url(#filter0_f_38_46)">
<rect x="50.2963" y="235.464" width="624.905" height="501.444" rx="30" transform="rotate(-5 50.2963 235.464)" fill="#F7F6FE"/>
</g>
</g>
<defs>
<filter id="filter0_f_38_46" x="48.795" y="179.499" width="669.234" height="557.003" filterUnits="userSpaceOnUse" color-interpolation-filters="sRGB">
<feFlood flood-opacity="0" result="BackgroundImageFix"/>
<feBlend mode="normal" in="SourceGraphic" in2="BackgroundImageFix" result="shape"/>
<feGaussianBlur stdDeviation="2" result="effect1_foregroundBlur_38_46"/>
</filter>
<linearGradient id="paint0_linear_38_46" x1="1112.38" y1="768.647" x2="520.3" y2="707.733" gradientUnits="userSpaceOnUse">
<stop stop-color="#61EFFD" stop-opacity="0"/>
<stop offset="0.51929" stop-color="#61EFFD"/>
<stop offset="1" stop-color="#535FD7"/>
</linearGradient>
<linearGradient id="paint1_linear_38_46" x1="766.145" y1="344.163" x2="172.745" y2="278.657" gradientUnits="userSpaceOnUse">
<stop stop-color="#61EFFD" stop-opacity="0"/>
<stop offset="0.51929" stop-color="#61EFFD"/>
<stop offset="1" stop-color="#535FD7"/>
</linearGradient>
<linearGradient id="paint2_linear_38_46" x1="435.021" y1="581.762" x2="9.90817" y2="534.244" gradientUnits="userSpaceOnUse">
<stop stop-color="#61EFFD" stop-opacity="0"/>
<stop offset="0.51929" stop-color="#61EFFD"/>
<stop offset="1" stop-color="#535FD7" stop-opacity="0.24"/>
</linearGradient>
<linearGradient id="paint3_linear_38_46" x1="519.181" y1="661.602" x2="1108.35" y2="836.015" gradientUnits="userSpaceOnUse">
<stop stop-color="#61EFFD" stop-opacity="0"/>
<stop offset="1" stop-color="#61EFFD"/>
</linearGradient>
<linearGradient id="paint4_linear_38_46" x1="371.532" y1="593.638" x2="473.647" y2="647.383" gradientUnits="userSpaceOnUse">
<stop stop-color="#2FEAFC"/>
<stop offset="1" stop-color="white" stop-opacity="0.48"/>
</linearGradient>
<clipPath id="clip0_38_46">
<rect width="822" height="1013" fill="white"/>
</clipPath>
</defs>
</svg>
