<svg id="Layer_1" data-name="Layer 1" xmlns="http://www.w3.org/2000/svg" viewBox="0 0 200.01 63.01"><defs><style>.cls-1{fill:#231f20;}.cls-2{fill:#e50d63;}.cls-3{fill:#96bc33;}.cls-4{fill:#00abea;}.cls-5{fill:#642d91;}.cls-6{fill:#ffd400;}.cls-7{fill:#f09b1a;}.cls-8{fill:#e3811c;}.cls-9{fill:#00756b;}.cls-10{fill:#007dc5;}.cls-11{fill:#460f43;}.cls-12{fill:#ba141a;}.cls-13{fill:#32888f;}.cls-14{fill:none;}</style></defs><path class="cls-1" d="M77.25,28.14c0,3.33-1.61,4.88-5.08,4.88a14.24,14.24,0,0,1-4.66-1L67.38,32V19.32c0-.42,0-.51.52-.74A14.53,14.53,0,0,1,72.09,18c3.43,0,5.16,1.6,5.16,4.76Zm3.81.12V22.63c0-5.39-2.84-8.13-8.45-8.13a20.59,20.59,0,0,0-7.38,1.17A2.06,2.06,0,0,0,63.61,18V43.62c0,.78.29,1.07,1.06,1.07h1.68c.75,0,1-.29,1-1.07V35.47l.05,0a14.92,14.92,0,0,0,5,1c5.64,0,8.61-2.86,8.61-8.25m16.46,3.79c0,.51-.09.59-.56.77a13.67,13.67,0,0,1-4.4.48c-3.89,0-4.68-1.25-4.68-3.25,0-2.36,1.31-3.24,4.8-3.24,1.81,0,3.79.2,4.74.3h.1Zm3.81,1V22.67c0-5.5-2.72-8.17-8.33-8.17-4,0-6.74,1.43-8.23,4.25a1.14,1.14,0,0,0-.15.91,1.18,1.18,0,0,0,.72.6l1.28.56c.74.3,1,.15,1.45-.53.92-1.6,2.51-2.38,4.85-2.38,3.26,0,4.64,1.39,4.64,4.64V24a41,41,0,0,0-4.48-.27c-6.56,0-9,1.73-9,6.37,0,3.88,1.5,6.46,8.84,6.46a18.42,18.42,0,0,0,6.91-1c1.13-.48,1.5-.89,1.5-2.37M123,36.8V16.17c0-.78-.29-1.07-1.07-1.07h-1.63c-.78,0-1.07.29-1.07,1.07V31.45a16.49,16.49,0,0,1-5,.81c-3.31,0-4.92-1.52-4.92-4.64V16.17c0-.78-.28-1.07-1-1.07h-1.68c-.78,0-1.07.29-1.07,1.07V27.74c0,5.31,2.76,8,8.21,8a19.56,19.56,0,0,0,5.48-.81v2c0,3.42-1.68,5.15-5,5.15a5,5,0,0,1-4.86-2.63,1.09,1.09,0,0,0-1.7-.38l-1.15.63a1.2,1.2,0,0,0-.69.7,1.24,1.24,0,0,0,.25,1c1.56,2.78,4.24,4.12,8.19,4.12,5.79,0,8.73-2.93,8.73-8.72m16.76-1.4V34c0-.8-.27-1.06-1.11-1.06-3.78,0-5-.74-5-5.08V18.63h5.12c.75,0,1-.29,1-1.07V16.17c0-.78-.28-1.07-1-1.07h-5.12V11.38c0-.78-.29-1.07-1.06-1.07h-1.68c-.75,0-1,.29-1,1.07V15.1h-3.2c-.78,0-1.07.29-1.07,1.07v1.39c0,.78.29,1.07,1.07,1.07h3.2V27.9c0,3.4.6,5.5,2,6.81S135,36.47,138,36.47h.68c.83,0,1.1-.31,1.1-1.07m16.54-6.62c0,2.68-2,4.28-5.28,4.28s-5.28-1.6-5.28-4.28V22.23c0-2.68,2-4.28,5.28-4.28s5.28,1.6,5.28,4.28Zm3.81,0V22.27c0-4.86-3.4-7.77-9.09-7.77S142,17.41,142,22.27v6.51c0,4.84,3.39,7.73,9.05,7.73s9.09-2.89,9.09-7.73M176,35.4V34c0-.8-.27-1.06-1.11-1.06-3.78,0-5-.74-5-5.08V18.63H175c.75,0,1-.29,1-1.07V16.17c0-.78-.28-1.07-1-1.07h-5.12V11.38c0-.78-.29-1.07-1.06-1.07h-1.68c-.75,0-1,.29-1,1.07V15.1h-3.2c-.78,0-1.07.29-1.07,1.07v1.39c0,.78.29,1.07,1.07,1.07h3.2V27.9c0,3.4.6,5.5,1.95,6.81s3.17,1.76,6.19,1.76h.68c.83,0,1.1-.31,1.1-1.07m15.22-3.35c0,.51-.09.59-.56.77a13.71,13.71,0,0,1-4.4.48c-3.89,0-4.68-1.25-4.68-3.25,0-2.36,1.3-3.24,4.8-3.24,1.8,0,3.78.2,4.74.3h.1Zm3.81,1V22.67c0-5.5-2.72-8.17-8.33-8.17-4,0-6.74,1.43-8.24,4.25a1.17,1.17,0,0,0-.14.91,1.18,1.18,0,0,0,.72.6l1.28.56c.74.3,1,.15,1.45-.53.92-1.6,2.51-2.38,4.85-2.38,3.25,0,4.64,1.39,4.64,4.64V24a41,41,0,0,0-4.48-.27c-6.56,0-9,1.73-9,6.37,0,3.88,1.51,6.46,8.85,6.46a18.42,18.42,0,0,0,6.91-1c1.13-.48,1.5-.89,1.5-2.37"/><path class="cls-2" d="M22.84,27.92H3.59a1.17,1.17,0,0,1-1.17-1.17v-11a1.17,1.17,0,0,1,1.17-1.17H22.84A1.17,1.17,0,0,1,24,15.75v11a1.18,1.18,0,0,1-1.17,1.17"/><path class="cls-3" d="M29.63,27.92H48.88a1.17,1.17,0,0,1,1.17,1.17v11a1.17,1.17,0,0,1-1.17,1.17H29.63a1.17,1.17,0,0,1-1.17-1.17v-11a1.17,1.17,0,0,1,1.17-1.17"/><path class="cls-4" d="M27.93,30.86l9.63,16.67a1.17,1.17,0,0,1-.43,1.6l-9.53,5.5A1.18,1.18,0,0,1,26,54.2L16.38,37.53a1.18,1.18,0,0,1,.43-1.6l9.53-5.5a1.16,1.16,0,0,1,1.59.43"/><path class="cls-5" d="M24.54,30.86,14.91,47.53a1.17,1.17,0,0,1-1.6.43l-9.53-5.5a1.17,1.17,0,0,1-.42-1.6L13,24.19a1.17,1.17,0,0,1,1.6-.43l9.53,5.5a1.18,1.18,0,0,1,.43,1.6"/><path class="cls-6" d="M27.93,25,37.56,8.3a1.16,1.16,0,0,1,1.6-.42l9.52,5.5A1.15,1.15,0,0,1,49.11,15L39.49,31.65a1.17,1.17,0,0,1-1.6.42l-9.53-5.5a1.17,1.17,0,0,1-.43-1.6"/><path class="cls-7" d="M24.54,25,14.91,8.3a1.16,1.16,0,0,1,.43-1.59L24.87,1.2a1.16,1.16,0,0,1,1.59.43L36.09,18.3a1.17,1.17,0,0,1-.43,1.6l-9.53,5.5A1.15,1.15,0,0,1,24.54,25"/><path class="cls-8" d="M35.66,19.9a1.17,1.17,0,0,0,.43-1.6l-2.15-3.72-5.48,9.48Z"/><path class="cls-7" d="M30.69,27.92l7.2,4.15a1.17,1.17,0,0,0,1.6-.42l2.15-3.73Z"/><path class="cls-9" d="M28.46,31.78v8.31a1.17,1.17,0,0,0,1.17,1.17h4.31Z"/><path class="cls-10" d="M16.81,35.93a1.18,1.18,0,0,0-.43,1.6l2.15,3.73L24,31.78Z"/><path class="cls-11" d="M21.78,27.92l-7.2-4.16a1.17,1.17,0,0,0-1.6.43l-2.15,3.73Z"/><path class="cls-12" d="M22.84,14.58H18.53L24,24.06V15.75a1.17,1.17,0,0,0-1.17-1.17"/><path class="cls-13" d="M193.93,54.93a1.54,1.54,0,0,1,1,.36,1.22,1.22,0,0,1,.49.85v.09H192.3a1.47,1.47,0,0,1,1.63-1.3m3,1.85a3.21,3.21,0,0,0-.41-1.58,3.17,3.17,0,0,0-1.12-1.15,2.74,2.74,0,0,0-1.48-.43,3,3,0,0,0-2.63,1.59,3.63,3.63,0,0,0-.43,1.8,3.3,3.3,0,0,0,.4,1.65,2.89,2.89,0,0,0,1.15,1.15,3.51,3.51,0,0,0,1.75.42A3.39,3.39,0,0,0,195.3,60a3,3,0,0,0,.89-.46.74.74,0,0,0,.34-.59.58.58,0,0,0-.18-.42.61.61,0,0,0-.43-.17,1,1,0,0,0-.41.1l-.22.14a1.76,1.76,0,0,1-.43.19,2.54,2.54,0,0,1-.76.09,1.82,1.82,0,0,1-1.16-.4,1.75,1.75,0,0,1-.65-1.1h3.93a.77.77,0,0,0,.5-.18.58.58,0,0,0,.22-.46m-7.26,2.61V52a.72.72,0,0,0-.21-.52.66.66,0,0,0-.5-.21.72.72,0,0,0-.52.21.75.75,0,0,0-.2.52v7.37a.69.69,0,0,0,.2.51.66.66,0,0,0,.5.21.72.72,0,0,0,.73-.72m-5.85-.47a1.6,1.6,0,0,1-1.27-.57,2.33,2.33,0,0,1,0-2.86,1.62,1.62,0,0,1,1.27-.56,1.58,1.58,0,0,1,1.25.56,2.33,2.33,0,0,1,0,2.86,1.59,1.59,0,0,1-1.25.57m.17-5.3a2.27,2.27,0,0,0-1.07.27,2.47,2.47,0,0,0-.8.62v0a.69.69,0,0,0-.2-.51.72.72,0,0,0-1,0,.69.69,0,0,0-.21.51v7.31a.69.69,0,0,0,.21.52.75.75,0,0,0,1,0,.71.71,0,0,0,.2-.52V59.43A3,3,0,0,0,183,60a2.71,2.71,0,0,0,2.54-.19,2.92,2.92,0,0,0,1-1.18,3.94,3.94,0,0,0,0-3.42A2.93,2.93,0,0,0,185.49,54a2.72,2.72,0,0,0-1.49-.42m-6.93,0a2.08,2.08,0,0,0-1.26.4,2.79,2.79,0,0,0-.82.91,1.81,1.81,0,0,0-1.92-1.31,2.1,2.1,0,0,0-1.11.3,3,3,0,0,0-.81.73v-.19A.73.73,0,0,0,171,54a.74.74,0,0,0-1,0,.73.73,0,0,0-.2.51v4.93a.73.73,0,0,0,.2.51.74.74,0,0,0,1,0,.73.73,0,0,0,.2-.51V56.33a1.39,1.39,0,0,1,.37-1,1.36,1.36,0,0,1,1-.4,1,1,0,0,1,.9.37,1.83,1.83,0,0,1,.25,1v3.06a.73.73,0,0,0,.2.51.74.74,0,0,0,1,0,.73.73,0,0,0,.2-.51V56.33a1.4,1.4,0,0,1,.38-1,1.33,1.33,0,0,1,1-.4,1,1,0,0,1,.9.37,1.82,1.82,0,0,1,.26,1v3.06a.69.69,0,0,0,.2.51.72.72,0,0,0,1,0,.69.69,0,0,0,.21-.51V56.33a3.76,3.76,0,0,0-.46-2,1.76,1.76,0,0,0-1.63-.72M167.53,53a1.11,1.11,0,0,0,.59-.12.57.57,0,0,0,.17-.47v-.23a.55.55,0,0,0-.17-.46.94.94,0,0,0-.58-.13,1,1,0,0,0-.57.13.52.52,0,0,0-.18.46v.23a.56.56,0,0,0,.16.46,1,1,0,0,0,.58.13m.72,6.43V54.46a.69.69,0,0,0-.2-.51.68.68,0,0,0-.51-.21A.66.66,0,0,0,167,54a.69.69,0,0,0-.21.51v4.93a.69.69,0,0,0,.21.51.66.66,0,0,0,.51.21.68.68,0,0,0,.51-.21.69.69,0,0,0,.2-.51m-5.66.84a3.85,3.85,0,0,0,1.52-.3,2.8,2.8,0,0,0,1.12-.87,2.11,2.11,0,0,0,.43-1.32,2.4,2.4,0,0,0-.31-1.28,2.09,2.09,0,0,0-.93-.76,6.71,6.71,0,0,0-1.64-.46,4,4,0,0,1-1.32-.43A.83.83,0,0,1,161,54a.87.87,0,0,1,.41-.74,2.15,2.15,0,0,1,1.17-.28,2.84,2.84,0,0,1,1,.21,3,3,0,0,1,.86.46.57.57,0,0,0,.33.11.62.62,0,0,0,.47-.21.66.66,0,0,0,.21-.48.82.82,0,0,0-.35-.64,3.48,3.48,0,0,0-1.1-.59,4.34,4.34,0,0,0-1.41-.23,3.92,3.92,0,0,0-1.52.29,2.52,2.52,0,0,0-1.07.85,2.2,2.2,0,0,0-.39,1.3c0,1.37.87,2.18,2.61,2.44a4,4,0,0,1,1.51.45,1,1,0,0,1,.48.84.85.85,0,0,1-.49.74,2.12,2.12,0,0,1-1.15.3,2.89,2.89,0,0,1-1.07-.18,3.65,3.65,0,0,1-.93-.57.59.59,0,0,0-.4-.14.65.65,0,0,0-.49.21.63.63,0,0,0-.2.48.81.81,0,0,0,.32.63,3.63,3.63,0,0,0,1.25.73,5,5,0,0,0,1.52.21m-10.34-5.3a1.52,1.52,0,0,1,1,.36,1.18,1.18,0,0,1,.49.85v.09h-3.12a1.48,1.48,0,0,1,1.63-1.3m3,1.85a3.11,3.11,0,0,0-.42-1.58,3.22,3.22,0,0,0-1.11-1.15,2.77,2.77,0,0,0-1.49-.43,3,3,0,0,0-2.63,1.59,3.63,3.63,0,0,0-.43,1.8,3.31,3.31,0,0,0,.41,1.65,2.87,2.87,0,0,0,1.14,1.15,3.51,3.51,0,0,0,1.75.42,3.39,3.39,0,0,0,1.13-.19,3,3,0,0,0,.9-.46.76.76,0,0,0,.33-.59.58.58,0,0,0-.18-.42.61.61,0,0,0-.43-.17.88.88,0,0,0-.4.1l-.22.14a2.06,2.06,0,0,1-.44.19,2.54,2.54,0,0,1-.76.09,1.82,1.82,0,0,1-1.16-.4,1.75,1.75,0,0,1-.65-1.1h3.93a.75.75,0,0,0,.5-.18.63.63,0,0,0,.23-.46m-10.39,2.14a1.57,1.57,0,0,1-1.26-.57,2.34,2.34,0,0,1,0-2.85,1.56,1.56,0,0,1,1.25-.57,1.6,1.6,0,0,1,1.26.57,2.11,2.11,0,0,1,.49,1.43,2.06,2.06,0,0,1-.49,1.42,1.6,1.6,0,0,1-1.26.57m2.4-7.63a.69.69,0,0,0-.51.21.75.75,0,0,0-.2.52v2.34a2.67,2.67,0,0,0-.85-.53,2.72,2.72,0,0,0-1.07-.21,2.67,2.67,0,0,0-1.46.42,2.92,2.92,0,0,0-1,1.18,4,4,0,0,0,0,3.41,3,3,0,0,0,1.06,1.18,2.72,2.72,0,0,0,1.49.42,2.42,2.42,0,0,0,1.06-.24,2.57,2.57,0,0,0,.81-.59.78.78,0,0,0,.21.51.69.69,0,0,0,.5.2.7.7,0,0,0,.52-.21.73.73,0,0,0,.2-.51V52a.72.72,0,0,0-.2-.52.7.7,0,0,0-.52-.21m-9.83,7.63a1.56,1.56,0,0,1-1.25-.57,2.11,2.11,0,0,1-.49-1.42,2.16,2.16,0,0,1,.49-1.43,1.68,1.68,0,0,1,2.52,0,2.16,2.16,0,0,1,.49,1.43,2.11,2.11,0,0,1-.49,1.42,1.6,1.6,0,0,1-1.27.57m2.41-5.3a.66.66,0,0,0-.51.21.69.69,0,0,0-.2.52h0a2.79,2.79,0,0,0-.85-.53,2.72,2.72,0,0,0-1.07-.21,2.67,2.67,0,0,0-1.46.42,2.92,2.92,0,0,0-1,1.18,3.71,3.71,0,0,0-.39,1.71,3.61,3.61,0,0,0,.39,1.7,3,3,0,0,0,1.06,1.18,2.72,2.72,0,0,0,1.49.42,2.45,2.45,0,0,0,1.06-.24,2.57,2.57,0,0,0,.81-.59.73.73,0,0,0,.2.51.71.71,0,0,0,.51.2.66.66,0,0,0,.51-.21.69.69,0,0,0,.21-.51v-5a.71.71,0,0,0-.21-.53.69.69,0,0,0-.51-.2m-7.56-1.86a.63.63,0,0,0-.33.09.83.83,0,0,0-.26.23l-2.67,4-2.59-4a.84.84,0,0,0-.64-.32.76.76,0,0,0-.53.21.74.74,0,0,0-.22.52v6.9a.76.76,0,0,0,.19.51.64.64,0,0,0,.49.21.65.65,0,0,0,.5-.2.73.73,0,0,0,.19-.52V54.48l2,3.11a1.18,1.18,0,0,0,.27.23.62.62,0,0,0,.31.08.61.61,0,0,0,.32-.08,1,1,0,0,0,.28-.23l2-3v4.81a.7.7,0,0,0,.21.52.77.77,0,0,0,.55.2.69.69,0,0,0,.53-.21.69.69,0,0,0,.2-.51v-6.9a.67.67,0,0,0-.22-.52.71.71,0,0,0-.51-.21m-16.8,7.36a2.44,2.44,0,0,0,1.1.85,4.17,4.17,0,0,0,1.47.26,2.69,2.69,0,0,0,1.11-.23,2.19,2.19,0,0,0,.89-.66,1.6,1.6,0,0,0,.35-1,1.66,1.66,0,0,0-.3-1,1.89,1.89,0,0,0-.73-.59,8.65,8.65,0,0,0-1.07-.37c-.31-.08-.55-.16-.72-.22a1.09,1.09,0,0,1-.42-.25.51.51,0,0,1-.17-.42c0-.44.3-.65.9-.65a1.86,1.86,0,0,1,.77.15,1.48,1.48,0,0,1,.56.42.57.57,0,0,0,.43.16.58.58,0,0,0,.38-.13.55.55,0,0,0,.22-.45.68.68,0,0,0-.15-.43,2.24,2.24,0,0,0-1-.67,3.5,3.5,0,0,0-1.22-.22,2.89,2.89,0,0,0-1.13.23,2.08,2.08,0,0,0-.85.66,1.55,1.55,0,0,0-.33,1,1.57,1.57,0,0,0,.31,1,2,2,0,0,0,.76.58,6.86,6.86,0,0,0,1.12.38,4.29,4.29,0,0,1,1,.36.57.57,0,0,1,.32.52c0,.45-.31.68-.93.71a2.22,2.22,0,0,1-.94-.18,2.58,2.58,0,0,1-.74-.55.68.68,0,0,0-.48-.23.68.68,0,0,0-.65.64.51.51,0,0,0,.11.35m-1.67-.35a.74.74,0,0,0-.28.06,1,1,0,0,1-.26,0,.52.52,0,0,1-.36-.11.49.49,0,0,1-.13-.36V55.17h.85a.65.65,0,0,0,.48-.19.63.63,0,0,0,.19-.46.65.65,0,0,0-.67-.66h-.85v-.77a.67.67,0,0,0-.2-.51.66.66,0,0,0-.5-.21.7.7,0,0,0-.52.21.68.68,0,0,0-.21.51v.77h-.54a.66.66,0,0,0-.48.18.6.6,0,0,0-.19.46.65.65,0,0,0,.19.48.67.67,0,0,0,.48.19h.54v3.29a1.47,1.47,0,0,0,.51,1.34,2.31,2.31,0,0,0,1.24.31,1.46,1.46,0,0,0,.8-.22.65.65,0,0,0,.35-.54.61.61,0,0,0-.14-.42.38.38,0,0,0-.3-.16m-6.77-5.15a2.17,2.17,0,0,0-1.14.31,2.87,2.87,0,0,0-.84.74v-.21a.73.73,0,0,0-.2-.51.69.69,0,0,0-.51-.21.66.66,0,0,0-.51.21.69.69,0,0,0-.21.51v4.93a.69.69,0,0,0,.21.51.66.66,0,0,0,.51.21.69.69,0,0,0,.51-.21.73.73,0,0,0,.2-.51V56.33a1.33,1.33,0,0,1,.4-1,1.43,1.43,0,0,1,1.08-.4,1.09,1.09,0,0,1,.94.37,1.75,1.75,0,0,1,.28,1v3.06a.69.69,0,0,0,.2.51.72.72,0,0,0,1,0,.69.69,0,0,0,.2-.51V56.33a3.66,3.66,0,0,0-.46-2,1.85,1.85,0,0,0-1.68-.72m-7.61,1.31a1.56,1.56,0,0,1,1,.36,1.25,1.25,0,0,1,.49.85v.09H97.81a1.49,1.49,0,0,1,1.64-1.3m3,1.85a3.22,3.22,0,0,0-1.53-2.73,2.74,2.74,0,0,0-1.48-.43A2.92,2.92,0,0,0,98,54a3.08,3.08,0,0,0-1.14,1.18,3.74,3.74,0,0,0-.43,1.8,3.31,3.31,0,0,0,.41,1.65,2.83,2.83,0,0,0,1.15,1.15,3.51,3.51,0,0,0,1.75.42,3.44,3.44,0,0,0,1.13-.19,3,3,0,0,0,.89-.46A.76.76,0,0,0,102,59a.61.61,0,0,0-.17-.42.63.63,0,0,0-.43-.17.91.91,0,0,0-.41.1l-.22.14a2,2,0,0,1-.43.19,2.61,2.61,0,0,1-.77.09,1.83,1.83,0,0,1-1.81-1.5h3.93a.73.73,0,0,0,.5-.18.59.59,0,0,0,.23-.46m-9.35-3.16a2.08,2.08,0,0,0-1.26.4,2.94,2.94,0,0,0-.83.91,1.8,1.8,0,0,0-1.92-1.31,2.09,2.09,0,0,0-1.1.3,2.86,2.86,0,0,0-.81.73v-.19A.69.69,0,0,0,87,54a.66.66,0,0,0-.51-.21A.68.68,0,0,0,86,54a.69.69,0,0,0-.2.51v4.93a.69.69,0,0,0,.2.51.68.68,0,0,0,.51.21A.66.66,0,0,0,87,59.9a.69.69,0,0,0,.21-.51V56.33a1.39,1.39,0,0,1,.37-1,1.35,1.35,0,0,1,1-.4,1,1,0,0,1,.9.37,1.82,1.82,0,0,1,.26,1v3.06a.73.73,0,0,0,.2.51.74.74,0,0,0,1,0,.73.73,0,0,0,.2-.51V56.33a1.4,1.4,0,0,1,.38-1,1.33,1.33,0,0,1,1-.4,1,1,0,0,1,.9.37,1.83,1.83,0,0,1,.25,1v3.06a.69.69,0,0,0,.21.51.66.66,0,0,0,.51.21A.68.68,0,0,0,95,59.9a.69.69,0,0,0,.2-.51V56.33a3.76,3.76,0,0,0-.45-2,1.78,1.78,0,0,0-1.63-.72m-9.62.12A.69.69,0,0,0,83,54a.73.73,0,0,0-.2.51v3a1.48,1.48,0,0,1-.34,1.05,1.27,1.27,0,0,1-1,.36,1.3,1.3,0,0,1-1-.33,1.48,1.48,0,0,1-.33-1.08v-3A.69.69,0,0,0,80,54a.68.68,0,0,0-.51-.21A.66.66,0,0,0,79,54a.69.69,0,0,0-.21.51v3.48A2.54,2.54,0,0,0,79,59.13a2,2,0,0,0,.73.81,2.12,2.12,0,0,0,1.1.29,2.34,2.34,0,0,0,1.93-.77v.12a1.61,1.61,0,0,1-.4,1.24,1.82,1.82,0,0,1-1.24.36,2,2,0,0,1-.49,0,3.22,3.22,0,0,1-.44-.14l-.29-.12a.85.85,0,0,0-.23,0,.54.54,0,0,0-.37.14.72.72,0,0,0-.25.39.81.81,0,0,0,0,.2c0,.29.19.52.58.69a3.15,3.15,0,0,0,.69.17,5.9,5.9,0,0,0,.83.06,3.3,3.3,0,0,0,2.22-.7,2.81,2.81,0,0,0,.84-2.26V54.46A.73.73,0,0,0,84,54a.7.7,0,0,0-.52-.21m-9.25,5.18A1.57,1.57,0,0,1,73,58.35a2.1,2.1,0,0,1-.48-1.42A2.15,2.15,0,0,1,73,55.5a1.68,1.68,0,0,1,2.52,0A2.16,2.16,0,0,1,76,56.93a2.11,2.11,0,0,1-.49,1.42,1.6,1.6,0,0,1-1.26.57m2.4-5.3a.68.68,0,0,0-.51.21.69.69,0,0,0-.2.52h0a2.79,2.79,0,0,0-.85-.53A2.72,2.72,0,0,0,74,53.62a2.67,2.67,0,0,0-1.46.42,2.92,2.92,0,0,0-1,1.18,3.71,3.71,0,0,0-.38,1.71,3.61,3.61,0,0,0,.38,1.7,3,3,0,0,0,1.06,1.18,2.72,2.72,0,0,0,1.49.42A2.42,2.42,0,0,0,75.12,60a2.57,2.57,0,0,0,.81-.59.74.74,0,0,0,.21.51.69.69,0,0,0,.5.2.66.66,0,0,0,.51-.21.69.69,0,0,0,.21-.51v-5a.71.71,0,0,0-.21-.53.69.69,0,0,0-.51-.2m-8.72,2.15H65.85V53.14h2.07a.68.68,0,0,1,.45.19,1.36,1.36,0,0,1,.35.48,1.45,1.45,0,0,1,.14.64,1.42,1.42,0,0,1-.14.64,1.4,1.4,0,0,1-.35.49.68.68,0,0,1-.45.19m0-4H65.2a.68.68,0,0,0-.51.21.7.7,0,0,0-.21.52v6.89a.72.72,0,0,0,.19.51.62.62,0,0,0,.49.21.69.69,0,0,0,.5-.2.77.77,0,0,0,.19-.52V57.13h2.07a2.08,2.08,0,0,0,1.16-.36,2.7,2.7,0,0,0,.88-1,2.83,2.83,0,0,0,.33-1.34,2.78,2.78,0,0,0-1.21-2.32,2.08,2.08,0,0,0-1.16-.36"/><rect class="cls-14" x="2.42" y="1.05" width="194.53" height="61.45"/></svg>