<svg width="109" height="138" viewBox="0 0 109 138" fill="none" xmlns="http://www.w3.org/2000/svg">
<path d="M45.7019 73.5205C47.2756 72.6451 47.1059 72.2069 44.8267 71.0915C42.2314 69.8192 40.5305 69.8939 40.2898 71.2724C40.0614 72.672 44.1494 74.3838 45.7019 73.5205Z" fill="#EA4335"/>
<path d="M32.258 67.3718C36.3174 69.6637 39.76 67.7433 35.7095 65.4181C29.6187 61.9529 22.6138 58.8999 20.9884 58.9593C19.9535 59.018 18.4765 59.8661 18.5409 60.3647C18.6858 61.099 22.4819 61.8226 32.258 67.3718Z" fill="#EA4335"/>
<path d="M17.7648 86.6029C31.373 83.7783 43.4655 81.8804 45.0402 81.5399C45.9348 81.3363 44.819 79.9474 43.414 79.5139C41.1167 78.8035 13.0329 85.43 13.6833 86.5505C13.9901 87.079 15.4133 87.1075 17.7648 86.6029Z" fill="#EA4335"/>
<path d="M73.3181 46.2188C74.3167 45.7582 74.8269 42.4208 73.9523 42.0774C73.4149 41.8786 72.0312 42.6449 71.7967 43.2588C71.2008 44.8976 72.1596 46.7431 73.3181 46.2188Z" fill="#EA4335"/>
<path d="M48.5634 89.6929C47.4481 90.7279 43.8579 95.4955 35.6824 106.758C30.6134 113.728 30.5393 113.939 32.4822 114.233C34.722 114.554 34.0301 114.331 45.9295 96.7866C50.2404 90.4494 51.5274 86.9479 48.5634 89.6929Z" fill="#EA4335"/>
<path d="M34.8334 94.3915C36.3138 93.5978 36.4159 93.4829 36.246 93.0448C35.9097 92.2232 35.2507 92.3479 32.1019 93.9023C32.0808 93.9144 24.5844 97.4296 21.3895 99.2923C18.8576 100.746 20.7156 101.427 22.0813 101.066C24.2292 100.452 28.4476 97.8329 34.8334 94.3915Z" fill="#EA4335"/>
<path d="M74.2339 34.6146C74.5341 26.4085 74.4701 25.5713 73.5932 25.7084C72.9974 25.7968 71.916 26.5024 71.5446 27.0257C70.925 27.9453 71.2398 37.7435 71.9566 39.2205C72.8521 41.1024 74.083 38.6194 74.2339 34.6146Z" fill="#EA4335"/>
<path d="M107.11 46.8567C107.739 46.7773 108.721 46.0447 113.32 42.1915C126.61 31.0649 129.481 29.9523 125.867 29.6878C124.549 29.5988 123.38 30.2982 118.77 33.9881C105.708 44.3922 102.979 47.3968 107.11 46.8567Z" fill="#EA4335"/>
<path d="M101.535 38.4163C100.394 38.3391 99.7358 38.6604 99.1883 39.5104C98.4911 40.5872 98.7784 41.3243 99.9012 41.2715C102.147 41.166 103.665 38.5466 101.535 38.4163Z" fill="#EA4335"/>
<path d="M87.7157 42.9123C88.2624 42.7394 88.6951 42.3218 88.9031 41.8077C90.7415 37.1721 92.9363 31.5993 94.8378 28.4778C98.2729 22.8127 101.69 15.6634 101.285 14.9657C100.291 13.2533 98.1513 14.5105 96.4393 17.8614C88.9608 32.3599 84.9613 42.5771 84.9394 43.2662C84.9071 43.7922 86.5802 43.2825 87.7157 42.9123Z" fill="#EA4335"/>
<path d="M104.783 32.3795C108.381 29.8061 115.196 21.5799 113.804 20.8291C112.661 20.2169 111.001 20.9443 109.428 22.6931C106.601 25.8671 102.743 31.2396 102.506 32.334C102.506 32.334 102.106 34.3111 104.783 32.3795Z" fill="#EA4335"/>
<path d="M63.3128 90.3849C61.9544 90.5165 61.3352 91.0976 61.0136 92.579C60.5895 94.5138 60.7263 94.6041 58.6841 113.282C58.1918 117.765 58.3215 118.085 60.3413 117.348C61.6122 116.872 61.7181 116.473 62.604 109.227C64.6705 92.1423 64.759 90.2592 63.3128 90.3849Z" fill="#EA4335"/>
<path d="M59.9274 49.3695C58.7307 48.0834 57.2147 47.7982 56.9499 48.7959C56.844 49.195 58.0418 51.016 58.4722 51.0789C59.7334 51.3131 60.6907 50.1997 59.9274 49.3695Z" fill="#EA4335"/>
<path d="M94.192 85.0846C94.1337 85.3718 94.3021 85.6134 94.7708 85.9362C96.4543 87.14 100.861 90.4168 102.024 91.3553C104.373 93.2202 106.318 94.2454 106.967 93.9575C107.839 93.5695 107.686 93.4036 103.8 90.3921C96.682 84.8669 94.4504 83.6396 94.192 85.0846Z" fill="#EA4335"/>
<path d="M82.4008 83.6245C81.1725 83.7378 80.2879 84.4431 80.4029 85.2227C80.5842 86.3589 92.468 106.54 93.2317 107.031C94.178 107.644 95.34 107.174 95.5346 106.104C95.7008 105.275 95.6272 105.149 92.801 100.232C91.2266 97.4711 89.3821 94.2453 88.7493 93.0583C85.7729 87.4947 83.0967 83.5631 82.4008 83.6245Z" fill="#EA4335"/>
<path d="M95.8186 77.2729C100.711 79.5941 117.26 86.779 117.281 86.7669C119.35 87.665 127.702 88.3374 113.017 81.9421C105.675 78.7445 100.226 76.0947 97.1856 75.5574C95.2972 75.2605 93.2267 76.055 95.8186 77.2729Z" fill="#EA4335"/>
<path d="M136.188 64.3809C132.03 64.1473 111.21 61.5285 108.086 61.9132C107.033 62.0384 106.822 62.1595 106.187 63.0036C104.988 64.622 106.077 64.8987 119.018 66.2065C130.583 67.3739 136.362 67.6358 138.64 67.0043C139.854 66.6734 142.146 64.709 136.188 64.3809Z" fill="#EA4335"/>
<path d="M46.3503 110.16C43.9986 114.978 43.1616 118.333 44.4026 117.903C45.4626 117.548 49.6436 109.678 49.3092 108.715C48.9257 107.666 47.1131 108.566 46.3503 110.16Z" fill="#EA4335"/>
<path d="M53.3998 41.0812C50.8362 38.4096 49.9002 37.9604 49.2556 39.1762C49.0795 39.5028 49.4688 40.125 51.8559 43.4617C52.8505 44.8357 53.8953 45.2787 54.887 44.7092C56.0598 44.064 55.9056 43.7015 53.3998 41.0812Z" fill="#EA4335"/>
<path d="M51.5878 101.881C50.4527 101.913 49.7736 102.585 49.3009 104.097C48.5564 106.497 50.4122 106.108 51.8581 103.558C52.5272 102.385 52.4383 101.844 51.5878 101.881Z" fill="#EA4335"/>
<path d="M48.4706 57.1602C46.5785 55.5969 38.3526 48.1147 35.9793 47.7579C35.1519 47.6411 34.6981 48.0708 35.0294 48.6416C35.3608 49.2125 46.9105 59.8037 48.5617 61.5334C50.4024 63.4927 57.1115 64.2914 48.4706 57.1602Z" fill="#EA4335"/>
<path d="M76.3773 107.802C76.0357 109.83 78.5819 111.018 79.7137 109.381C80.3632 108.416 79.8923 107.024 78.821 106.68C77.8831 106.373 76.5136 107.019 76.3773 107.802Z" fill="#EA4335"/>
<path d="M72.6329 92.5314C72.9369 93.879 74.9196 101.704 75.0139 102.158C75.2478 103.433 77.1032 103.382 77.6109 102.076C77.9317 101.272 75.091 92.5011 73.7901 90.2602C72.6733 88.3363 71.9934 89.6851 72.6329 92.5314Z" fill="#EA4335"/>
</svg>
