<svg width="92" height="83" viewBox="0 0 92 83" fill="none" xmlns="http://www.w3.org/2000/svg">
<path d="M55.0471 71.0549C54.9218 71.0157 54.3629 69.8134 53.8171 68.3931C52.1088 63.8322 50.2247 62.3819 47.9289 63.8293L46.6617 64.6267L46.6236 62.7266C46.5542 58.8175 44.4447 56.769 42.253 58.4989C40.2829 60.0482 39.4376 61.2554 39.2477 61.3348C39.2068 61.3775 38.744 61.0106 38.2298 60.5442C35.8949 58.4252 34.5274 59.1912 29.1843 61.3233L28.7691 60.2771C26.5374 54.6639 23.4494 53.8086 17.2016 57.0737C15.0338 58.2002 14.2492 58.51 14.178 58.2101C12.4898 50.1569 8.92479 46.9587 5.53171 50.5063C2.58831 53.5837 1.05317 55.8522 0.944867 57.4288C0.769268 59.4842 3.57644 60.9735 5.1512 57.5234C5.57721 56.6015 8.05245 53.3499 8.77378 52.7148C9.25775 52.3109 9.31052 52.494 10.5402 57.7936C11.5286 62.0181 12.9456 66.0158 16.8041 62.475C23.7353 56.1472 26.7654 55.957 27.4464 61.7791C27.7072 64.1099 30.0119 65.3587 31.419 63.9386C32.474 62.8526 34.3425 61.7157 35.6915 61.3604L36.7345 61.1037L37.3871 62.4463C38.5616 64.7576 40.2994 65.8845 42.1628 63.3577C43.2205 61.9116 43.3391 62.0598 43.178 64.5084C42.8426 69.0961 45.6205 71.9091 49.0229 67.8924C50.459 66.2038 50.4339 66.1959 51.0824 68.3426C51.8271 70.797 53.0084 71.9441 54.6277 71.8677C55.1089 71.824 55.4479 71.1803 55.0471 71.0549Z" fill="#01BBC8"/>
<path d="M78.1047 49.6702C76.0796 47.7036 73.7906 46.9318 71.7811 47.5524C70.6892 47.8772 70.44 47.8825 70.3596 47.5241C69.731 44.5229 68.0118 42.4577 66.2528 42.6292C65.5474 42.6862 64.6085 44.2802 63.3424 46.2165C62.3233 44.8147 59.5717 42.0935 57.9024 41.6266C55.5739 40.9813 53.4008 42.8278 52.1309 43.4578L51.9768 42.1045C51.3867 36.7829 47.9294 36.2286 43.3126 40.6982L41.2171 42.7362L40.9746 41.0498C40.0629 34.2947 36.7522 33.5361 31.2755 38.8196L29.1959 40.8067C28.1521 36.7593 27.3194 30.2791 23.2306 29.7215C21.3068 29.4527 19.2155 31.2137 15.6179 35.5026C10.2098 41.9737 16.0602 41.9996 17.6822 39.9804C22.4258 34.051 23.8011 33.2599 24.4258 36.01C25.2469 39.6267 26.5649 44.2043 26.88 44.6916C27.8754 46.1693 29.9863 46.7189 30.7275 45.7568C35.6557 39.4131 36.4429 39.798 36.9915 39.2755C37.2495 43.0215 37.3573 45.1381 37.6275 46.4721C38.0413 48.4898 40.0927 51.0755 43.4793 47.1094C47.2575 42.6827 48.5498 41.3655 48.559 41.9515C48.4212 48.0172 51.0594 49.8702 54.9272 46.3879C57.0332 44.4923 58.1646 44.0409 58.5431 43.7983C62.3228 49.5627 61.806 48.9289 62.303 49.3621C64.0131 50.8414 66.4445 50.1031 67.3085 47.4301C67.3797 47.2025 67.6012 47.5495 67.8108 48.1982C68.632 50.7598 70.6757 51.7879 73.0123 50.8253C75.0021 50.004 75.5915 49.9663 76.616 50.6479C79.1422 52.2437 80.0876 51.5957 78.1047 49.6702Z" fill="#01BBC8"/>
<path d="M82.7152 31.509L81.7302 31.2288C80.9724 27.4097 80.6588 25.4234 80.0089 24.2481C79.1454 22.7006 76.3213 20.6504 73.7772 25.8797C71.9097 29.7381 71.5272 30.2573 70.9972 29.8415C70.189 29.1721 67.755 28.1605 66.6395 28.0336C65.524 27.9067 65.4818 27.8657 65.234 26.8996C64.6567 24.5253 61.5978 23.4015 58.23 24.3191C57.4191 24.5374 56.773 24.6681 56.7559 24.635C56.7467 24.5766 56.6242 23.6497 56.4832 22.6059C56.0946 19.541 55.0528 19.3541 52.2219 18.4682L52.9264 16.2171C54.9366 9.79339 50.3718 9.0869 46.6122 11.5202C44.778 12.7233 42.3753 14.776 39.3712 17.6956L36.6533 20.316C34.4488 19.6261 34.4342 19.7604 33.5774 18.1039C32.7205 16.4474 31.9492 16.0116 29.8566 16.1065C29.2091 16.1538 28.6356 16.1409 28.6105 16.1331C27.7587 15.8665 32.8929 7.81005 27.4645 6.08355C25.5856 5.49558 24.1047 6.44841 17.7063 12.3043C9.84155 19.5062 16.4186 19.7595 17.6345 18.3351C18.7198 17.0642 23.4421 12.9605 24.7292 11.836C24.5313 12.9959 24.2871 14.3914 23.7185 16.296C22.629 19.9536 26.0941 21.5377 29.3183 18.8814C31.2792 17.2736 33.0355 18.5171 31.9237 20.7516C31.6493 21.2766 31.9709 22.1828 32.4719 22.3396C33.474 22.6531 35.2776 24.8003 36.9218 24.7317C38.1428 24.6973 39.447 23.606 42.0423 21.1138C42.8361 20.3348 44.3843 18.9034 45.703 17.6778C46.3663 17.0523 47.4238 17.7162 47.1547 18.5761C47.0385 20.7055 44.2625 23.3358 48.0203 24.5117C49.0224 24.8253 50.0997 24.6349 51.061 23.9361C52.4245 22.9189 52.3151 22.8291 52.8831 25.1449C53.5408 27.8775 55.6821 28.7695 59.0802 27.667C61.1887 26.994 61.3627 26.9652 61.4708 27.4988C61.762 29.1171 63.927 30.461 66.5219 30.6066C68.1437 30.6977 68.3191 30.7525 69.689 31.7366C73.0761 34.1849 74.847 33.7119 76.5417 29.9661L77.1682 28.5794L77.5017 29.7112C78.2833 32.3993 79.4053 33.9996 80.9849 34.5772C81.1853 34.64 87.2294 35.893 87.7134 35.4891C88.7143 34.6639 85.8032 32.3642 82.7152 31.509Z" fill="#01BBC8"/>
</svg>
