<svg width="86" height="95" viewBox="0 0 86 95" fill="none" xmlns="http://www.w3.org/2000/svg">
<path d="M1.09179 47.1031C2.09036 46.6399 2.60057 43.2843 1.726 42.939C1.1886 42.7391 -0.195145 43.5096 -0.429599 44.1268C-1.02553 45.7747 -0.0667453 47.6302 1.09179 47.1031Z" fill="#DDB657"/>
<path d="M39.6932 53.1022C39.0232 54.9629 39.8383 55.0591 43.7566 53.5621C46.3407 52.5804 45.5351 50.5516 42.8214 51.2114C40.3766 51.8009 40.0811 51.9713 39.6932 53.1022Z" fill="#DDB657"/>
<path d="M2.00757 35.4354C2.30775 27.1844 2.2438 26.3427 1.36687 26.4806C0.771122 26.5695 -0.310335 27.2789 -0.681724 27.8051C-1.30135 28.7296 -0.986483 38.5814 -0.269708 40.0666C0.625777 41.9587 1.85672 39.4621 2.00757 35.4354Z" fill="#DDB657"/>
<path d="M34.8838 47.7446C35.513 47.6648 36.4943 46.9282 41.0938 43.0539C54.3838 31.8664 57.2545 30.7478 53.6407 30.4818C52.323 30.3923 51.1536 31.0955 46.5438 34.8057C33.4813 45.2666 30.7524 48.2876 34.8838 47.7446Z" fill="#DDB657"/>
<path d="M29.3092 39.2579C28.1672 39.1803 27.5094 39.5034 26.9619 40.358C26.2648 41.4407 26.552 42.1818 27.6749 42.1288C29.9205 42.0226 31.4385 39.389 29.3092 39.2579Z" fill="#DDB657"/>
<path d="M15.4894 43.7786C16.0361 43.6047 16.4688 43.1848 16.6768 42.668C18.5152 38.007 20.71 32.4037 22.6115 29.2652C26.0466 23.5691 29.464 16.3807 29.059 15.6792C28.0649 13.9574 25.925 15.2215 24.2129 18.5908C16.7344 33.1685 12.735 43.4416 12.7131 44.1345C12.6808 44.6633 14.3539 44.1508 15.4894 43.7786Z" fill="#DDB657"/>
<path d="M32.5567 33.1882C36.1548 30.6007 42.9698 22.3296 41.5775 21.5746C40.4344 20.9592 38.7751 21.6904 37.2021 23.4489C34.3746 26.6402 30.5164 32.0421 30.2796 33.1424C30.2796 33.1424 29.8801 35.1304 32.5567 33.1882Z" fill="#DDB657"/>
<path d="M-8.91352 91.5107C-10.2719 91.6431 -10.8911 92.2273 -11.2127 93.7168C-11.6368 95.6622 -11.5 95.753 -13.5422 114.533C-14.0345 119.04 -13.9048 119.362 -11.885 118.621C-10.6141 118.143 -10.5082 117.741 -9.62236 110.456C-7.55578 93.2777 -7.46733 91.3843 -8.91352 91.5107Z" fill="#DDB657"/>
<path d="M21.9657 86.1814C21.9074 86.4701 22.0758 86.713 22.5445 87.0376C24.228 88.2481 28.6342 91.5427 29.7979 92.4863C32.1465 94.3615 34.092 95.3923 34.7407 95.1028C35.6127 94.7127 35.4598 94.5459 31.5735 91.5179C24.4557 85.9625 22.2241 84.7285 21.9657 86.1814Z" fill="#DDB657"/>
<path d="M10.1745 84.7133C8.94622 84.8272 8.06155 85.5364 8.17653 86.3203C8.35784 87.4627 20.2417 107.754 21.0054 108.248C21.9517 108.864 23.1137 108.391 23.3083 107.315C23.4745 106.483 23.4008 106.355 20.5747 101.411C19.0003 98.6356 17.1558 95.3922 16.523 94.1987C13.5466 88.6047 10.8704 84.6516 10.1745 84.7133Z" fill="#DDB657"/>
<path d="M23.5923 78.327C28.4845 80.6608 45.0335 87.8851 45.0546 87.8729C47.1232 88.7759 55.4754 89.452 40.7911 83.0217C33.449 79.8066 28.0001 77.1423 24.9593 76.6021C23.0709 76.3036 21.0004 77.1025 23.5923 78.327Z" fill="#DDB657"/>
<path d="M63.9619 65.3646C59.8033 65.1297 38.9841 62.4966 35.8596 62.8833C34.807 63.0093 34.596 63.1311 33.9606 63.9797C32.7621 65.607 33.8511 65.8852 46.7917 67.2002C58.3568 68.374 64.1353 68.6373 66.4132 68.0023C67.6277 67.6696 69.9196 65.6945 63.9619 65.3646Z" fill="#DDB657"/>
<path d="M67.8958 42.9418C67.6587 42.8236 49.8211 47.2552 49.0532 50.1644C48.55 52.0704 49.2613 52.4247 52.0402 51.5856C67.1615 47.0783 71.3794 44.7851 67.8958 42.9418Z" fill="#DDB657"/>
<path d="M0.406582 93.6689C0.710618 95.0238 2.69329 102.892 2.7876 103.348C3.02144 104.63 4.87693 104.579 5.38459 103.266C5.70538 102.457 2.86471 93.6385 1.5638 91.3852C0.44698 89.4508 -0.232926 90.807 0.406582 93.6689Z" fill="#DDB657"/>
</svg>
