<svg width="157" height="140" viewBox="0 0 157 140" fill="none" xmlns="http://www.w3.org/2000/svg">
<path fill-rule="evenodd" clip-rule="evenodd" d="M148.454 1.8566C156.205 7.02405 159.896 48.9544 152.44 46.2969C146.977 44.3775 145.649 38.3979 143.508 6.65495C142.917 -0.727129 143.582 -1.39152 148.454 1.8566ZM152.219 56.1149C159.084 60.3965 154.212 98.4142 146.83 98.4142C141.884 98.4142 141.219 90.3677 144.689 70.5099C147.642 53.8264 147.863 53.3835 152.219 56.1149ZM53.6676 89.5557C61.2712 91.7703 50.7148 100.038 37.4271 102.401C34.2528 102.917 31.596 103.508 31.3745 103.655C31.0054 104.025 44.4408 108.823 60.1646 114.064C85.2637 122.406 84.5255 129.862 59.7955 121.151C40.6759 114.433 28.4209 110.226 27.8304 110.226C27.4613 110.226 28.1264 111.259 29.1599 112.588C44.367 131.338 47.8358 136.949 45.3259 138.72C41.6349 141.452 35.7292 137.539 27.4613 126.983C15.0594 111.185 11.1476 107.125 1.4771 100.407C-2.28777 97.8236 1.18182 96.7163 11.4429 97.3069C27.0191 98.1927 35.3608 96.421 43.9979 90.663C46.8031 88.6698 49.5337 88.3746 53.6676 89.5557ZM107.779 130.822C100.027 130.822 98.9202 129.271 94.8604 125.506L96.4106 124.251C97.2962 123.513 101.135 122.48 105.49 121.742C115.382 120.118 122.912 116.057 130.441 108.232C131.401 107.273 132.361 106.534 132.656 106.608C153.474 110.004 129.703 130.822 107.779 130.822Z" fill="#01BBC8"/>
</svg>

