<svg width="25" height="20" viewBox="0 0 25 20" fill="none" xmlns="http://www.w3.org/2000/svg">
<path d="M7.62472 19.7506C16.6817 19.7506 21.6362 12.2461 21.6362 5.74955C21.6362 5.53955 21.6362 5.32655 21.6272 5.11655C22.5918 4.41828 23.4243 3.55378 24.0857 2.56355C23.1847 2.96083 22.2299 3.22266 21.2522 3.34055C22.282 2.72501 23.0533 1.7565 23.4227 0.615051C22.4552 1.18824 21.3962 1.59061 20.2922 1.80455C19.55 1.01409 18.5678 0.490428 17.4979 0.314688C16.4279 0.138947 15.3298 0.320934 14.3737 0.832457C13.4177 1.34398 12.6569 2.15649 12.2094 3.14414C11.7619 4.13179 11.6525 5.23945 11.8982 6.29555C9.94034 6.19738 8.02495 5.68875 6.27629 4.80267C4.52763 3.91658 2.98475 2.67282 1.74772 1.15205C1.11973 2.23668 0.928084 3.51965 1.21169 4.74045C1.4953 5.96125 2.23291 7.02835 3.27472 7.72505C2.49403 7.69853 1.73051 7.48889 1.04572 7.11305V7.18055C1.04707 8.31677 1.44068 9.41768 2.16003 10.2972C2.87938 11.1767 3.88035 11.7809 4.99372 12.0076C4.57112 12.124 4.13457 12.182 3.69622 12.1801C3.3872 12.181 3.07879 12.1524 2.77522 12.0946C3.0899 13.0726 3.70263 13.9278 4.52759 14.5403C5.35255 15.1527 6.34843 15.4918 7.37572 15.5101C5.63056 16.8808 3.47483 17.6242 1.25572 17.6206C0.864705 17.6222 0.473959 17.5997 0.0857239 17.5531C2.338 18.9889 4.95367 19.7514 7.62472 19.7506Z" fill="black"/>
</svg>
