<svg width="18" height="22" viewBox="0 0 18 22" fill="none" xmlns="http://www.w3.org/2000/svg">
<path fill-rule="evenodd" clip-rule="evenodd" d="M1 10C1.55228 10 2 10.4477 2 11V19C2 19.2652 2.10536 19.5196 2.29289 19.7071C2.48043 19.8946 2.73478 20 3 20H15C15.2652 20 15.5196 19.8946 15.7071 19.7071C15.8946 19.5196 16 19.2652 16 19V11C16 10.4477 16.4477 10 17 10C17.5523 10 18 10.4477 18 11V19C18 19.7957 17.6839 20.5587 17.1213 21.1213C16.5587 21.6839 15.7957 22 15 22H3C2.20435 22 1.44129 21.6839 0.87868 21.1213C0.31607 20.5587 0 19.7957 0 19V11C0 10.4477 0.447715 10 1 10Z" fill="#4A4A4A"/>
<path fill-rule="evenodd" clip-rule="evenodd" d="M8.29289 0.292893C8.68342 -0.0976311 9.31658 -0.0976311 9.70711 0.292893L13.7071 4.29289C14.0976 4.68342 14.0976 5.31658 13.7071 5.70711C13.3166 6.09763 12.6834 6.09763 12.2929 5.70711L9 2.41421L5.70711 5.70711C5.31658 6.09763 4.68342 6.09763 4.29289 5.70711C3.90237 5.31658 3.90237 4.68342 4.29289 4.29289L8.29289 0.292893Z" fill="#4A4A4A"/>
<path fill-rule="evenodd" clip-rule="evenodd" d="M9 1.49012e-08C9.55228 1.49012e-08 10 0.447715 10 1V14C10 14.5523 9.55228 15 9 15C8.44771 15 8 14.5523 8 14V1C8 0.447715 8.44771 1.49012e-08 9 1.49012e-08Z" fill="#4A4A4A"/>
</svg>
