<svg width="101" height="100" viewBox="0 0 101 100" fill="none" xmlns="http://www.w3.org/2000/svg">
<path d="M13.5313 100C11.3462 100 9.16103 99.5025 6.97588 98.01C0.857484 94.0299 -1.32766 84.5771 2.16857 77.6119L39.316 6.96517C40.6271 4.97512 41.9382 2.98507 43.6863 1.99005C46.7455 -1.4827e-07 50.2417 -0.497512 53.7379 0.497513C57.2342 1.49254 59.8563 3.9801 62.0415 7.46269L98.7519 77.6119C100.063 80.0995 100.5 82.5871 100.5 85.0746C100.5 89.0547 99.1889 93.0348 96.5667 95.5224C94.3816 98.5075 91.3224 100 87.8262 100H13.5313ZM46.7455 12.4378L10.0351 82.5871C8.724 85.0746 9.59805 88.0597 11.7832 89.5522C12.2202 90.0498 13.0943 90.0498 13.5313 90.0498H87.3891C88.7002 90.0498 89.5743 89.5522 90.4483 88.5572C91.3224 87.5622 91.7594 86.5672 91.7594 85.0746C91.7594 84.0796 91.7594 83.5821 91.3224 82.5871L54.612 12.4378C53.3009 9.95025 50.6787 9.45274 48.4936 10.4478C47.6195 10.9453 47.1825 11.4428 46.7455 12.4378Z" fill="#8C8C8C"/>
<path d="M50.6787 60.199C48.0566 60.199 46.3085 58.209 46.3085 55.2239V35.3234C46.3085 32.3383 48.0566 30.3483 50.6787 30.3483C53.3009 30.3483 55.049 32.3383 55.049 35.3234V55.2239C55.049 58.209 53.3009 60.199 50.6787 60.199Z" fill="#8C8C8C"/>
<path d="M50.6787 80.0995C49.3677 80.0995 48.4936 79.602 47.6195 78.607C46.7455 77.6119 46.3085 76.6169 46.3085 75.1244C46.3085 74.6269 46.3085 73.6318 46.7455 73.1343C47.1825 72.6368 47.1825 72.1393 47.6195 71.6418C48.0566 71.1443 48.4936 70.6468 48.9306 70.6468C49.8047 70.1493 50.6787 70.1493 51.5528 70.1493C51.9898 70.1493 51.9898 70.1493 52.4269 70.6468C52.8639 70.6468 52.8639 70.6468 53.3009 71.1443C53.3009 71.1443 53.7379 71.6418 54.175 71.6418C54.612 72.1393 55.049 72.6368 55.049 73.1343C55.049 73.6318 55.4861 74.6269 55.4861 75.1244C55.4861 76.6169 55.049 77.6119 54.175 78.607C52.8639 79.602 51.9898 80.0995 50.6787 80.0995Z" fill="#8C8C8C"/>
</svg>
